<?xml version="1.0" encoding="iso-8859-1"?>
<!-- Generator: Adobe Illustrator 19.0.0, SVG Export Plug-In . SVG Version: 6.00 Build 0)  -->
<svg version="1.1" xmlns="http://www.w3.org/2000/svg" xmlns:xlink="http://www.w3.org/1999/xlink" x="0px" y="0px"
	 viewBox="0 0 240 240" style="enable-background:new 0 0 240 240;" xml:space="preserve">
<g id="s_1_" style="display:none;">
	<g id="Ellipse_1" style="display:inline;">
		<g>
			<path style="fill:#11A38A;" d="M120,3.2c31.198,0,60.529,12.149,82.59,34.21C224.651,59.471,236.8,88.802,236.8,120
				s-12.149,60.529-34.21,82.59c-22.061,22.061-51.392,34.21-82.59,34.21s-60.529-12.149-82.59-34.21
				C15.349,180.529,3.2,151.198,3.2,120c0-31.198,12.149-60.529,34.21-82.59C59.471,15.349,88.802,3.2,120,3.2 M120,1.2
				C54.389,1.2,1.2,54.389,1.2,120S54.389,238.8,120,238.8S238.8,185.611,238.8,120S185.611,1.2,120,1.2L120,1.2z"/>
		</g>
	</g>
	<g id="Ellipse_1_copy" style="display:inline;">
		<g>
			<circle style="fill-rule:evenodd;clip-rule:evenodd;fill:#11A38A;" cx="120" cy="120" r="114"/>
		</g>
	</g>
	<g id="S" style="display:inline;">
		<g>
			<path style="fill:#FFFFFF;" d="M120.824,173.609c-21.75,0-38.549-11.399-38.849-31.198h22.499
				c0.6,8.399,6.149,13.949,15.899,13.949c9.899,0,15.75-5.25,15.75-12.75c0-22.648-53.999-8.999-53.849-46.948
				c0-18.899,15.299-30.299,36.898-30.299c21.449,0,36.149,10.95,37.499,29.849h-23.099c-0.45-6.9-6-12.3-15-12.45
				c-8.25-0.3-14.399,3.75-14.399,12.299c0,21,53.699,9.3,53.699,46.198C157.873,158.76,144.673,173.609,120.824,173.609z"/>
		</g>
	</g>
</g>
<g id="a_1_" style="display:none;">
	<g id="Ellipse_1_1_" style="display:inline;">
		<g>
			<path style="fill:#C02334;" d="M120,3.2c31.198,0,60.529,12.149,82.59,34.21C224.651,59.471,236.8,88.802,236.8,120
				s-12.149,60.529-34.21,82.59c-22.061,22.061-51.392,34.21-82.59,34.21s-60.529-12.149-82.59-34.21
				C15.349,180.529,3.2,151.198,3.2,120c0-31.198,12.149-60.529,34.21-82.59C59.471,15.349,88.802,3.2,120,3.2 M120,1.2
				C54.389,1.2,1.2,54.389,1.2,120S54.389,238.8,120,238.8S238.8,185.611,238.8,120S185.611,1.2,120,1.2L120,1.2z"/>
		</g>
	</g>
	<g id="Ellipse_1_copy_1_" style="display:inline;">
		<g>
			<circle style="fill-rule:evenodd;clip-rule:evenodd;fill:#C02334;" cx="120" cy="120" r="114"/>
		</g>
	</g>
	<g id="A" style="display:inline;">
		<g>
			<path style="fill:#FFFFFF;" d="M140.849,152.61H99.149l-6.9,19.949H70.201l37.648-104.846h24.45l37.648,104.846h-22.199
				L140.849,152.61z M119.999,92.013l-15.149,43.799h30.299L119.999,92.013z"/>
		</g>
	</g>
</g>
<g id="b_1_">
	<g id="Ellipse_1_2_">
		<g>
			<path style="fill:#E5AA17;" d="M120,3.2c31.198,0,60.529,12.149,82.59,34.21C224.651,59.471,236.8,88.802,236.8,120
				s-12.149,60.529-34.21,82.59c-22.061,22.061-51.392,34.21-82.59,34.21s-60.529-12.149-82.59-34.21
				C15.349,180.529,3.2,151.198,3.2,120c0-31.198,12.149-60.529,34.21-82.59C59.471,15.349,88.802,3.2,120,3.2 M120,1.2
				C54.389,1.2,1.2,54.389,1.2,120S54.389,238.8,120,238.8S238.8,185.611,238.8,120S185.611,1.2,120,1.2L120,1.2z"/>
		</g>
	</g>
	<g id="Ellipse_1_copy_2_">
		<g>
			<circle style="fill-rule:evenodd;clip-rule:evenodd;fill:#E5AA17;" cx="120" cy="120" r="114"/>
		</g>
	</g>
	<g id="B">
		<g>
			<path style="fill:#FFFFFF;" d="M127.274,172.56H82.125V67.864h43.199c21.899,0,34.049,11.399,34.049,26.999
				c0,12.75-7.65,20.699-17.85,23.999c11.85,2.1,20.249,13.049,20.249,25.349C161.772,160.86,149.023,172.56,127.274,172.56z
				 M122.324,84.813h-19.2v26.249h19.2c9.899,0,15.6-4.5,15.6-13.049C137.924,89.613,132.224,84.813,122.324,84.813z
				 M123.824,127.262h-20.7v28.198h21.15c10.199,0,16.199-4.949,16.199-13.799C140.474,132.661,134.023,127.262,123.824,127.262z"/>
		</g>
	</g>
</g>
<g id="b_copy_1_" style="display:none;">
	<g id="Ellipse_1_3_" style="display:inline;">
		<g>
			<path style="fill:#337180;" d="M120,3.2c31.198,0,60.529,12.149,82.59,34.21C224.651,59.471,236.8,88.802,236.8,120
				s-12.149,60.529-34.21,82.59c-22.061,22.061-51.392,34.21-82.59,34.21s-60.529-12.149-82.59-34.21
				C15.349,180.529,3.2,151.198,3.2,120c0-31.198,12.149-60.529,34.21-82.59C59.471,15.349,88.802,3.2,120,3.2 M120,1.2
				C54.389,1.2,1.2,54.389,1.2,120S54.389,238.8,120,238.8S238.8,185.611,238.8,120S185.611,1.2,120,1.2L120,1.2z"/>
		</g>
	</g>
	<g id="Ellipse_1_copy_3_" style="display:inline;">
		<g>
			<circle style="fill-rule:evenodd;clip-rule:evenodd;fill:#337180;" cx="120" cy="120" r="114"/>
		</g>
	</g>
	<g id="I" style="display:inline;">
		<g>
			<path style="fill:#FFFFFF;" d="M109.5,67.864h21V172.56h-21V67.864z"/>
		</g>
	</g>
</g>
</svg>
