<?xml version="1.0" encoding="utf-8"?>
<!-- Generator: Adobe Illustrator 19.0.0, SVG Export Plug-In . SVG Version: 6.00 Build 0)  -->
<svg version="1.1" id="Layer_1" xmlns="http://www.w3.org/2000/svg" xmlns:xlink="http://www.w3.org/1999/xlink" x="0px" y="0px"
	 viewBox="-185 277 240 240" style="enable-background:new -185 277 240 240;" xml:space="preserve">
<style type="text/css">
	.st0{fill:#11A38A;}
	.st1{fill:#FFFFFF;}
	.st2{fill:#C02334;}
	.st3{fill:#E5AA17;}
	.st4{fill:#337180;}
	.st5{fill:#01616B;}
</style>
<g id="s_1_">
	<g id="Ellipse_1">
		<g>
			<path class="st0" d="M-65,280.2c31.2,0,60.5,12.1,82.6,34.2s34.2,51.4,34.2,82.6s-12.1,60.5-34.2,82.6s-51.4,34.2-82.6,34.2
				s-60.5-12.1-82.6-34.2s-34.2-51.4-34.2-82.6s12.1-60.5,34.2-82.6S-96.2,280.2-65,280.2 M-65,278.2
				c-65.6,0-118.8,53.2-118.8,118.8S-130.6,515.8-65,515.8S53.8,462.6,53.8,397S0.6,278.2-65,278.2L-65,278.2z"/>
		</g>
	</g>
	<g id="Ellipse_1_copy">
		<g>
			<circle class="st0" cx="-65" cy="397" r="114"/>
		</g>
	</g>
	<g id="S">
		<g>
			<path class="st1" d="M-64.2,450.6c-21.8,0-38.5-11.4-38.8-31.2h22.5c0.6,8.4,6.1,13.9,15.9,13.9c9.9,0,15.8-5.3,15.8-12.8
				c0-22.6-54-9-53.8-46.9c0-18.9,15.3-30.3,36.9-30.3c21.4,0,36.1,10.9,37.5,29.8h-23.1c-0.4-6.9-6-12.3-15-12.4
				c-8.3-0.3-14.4,3.8-14.4,12.3c0,21,53.7,9.3,53.7,46.2C-27.1,435.8-40.3,450.6-64.2,450.6z"/>
		</g>
	</g>
</g>
<g id="a_1_">
	<g id="Ellipse_1_1_">
		<g>
			<path class="st2" d="M-65,280.2c31.2,0,60.5,12.1,82.6,34.2s34.2,51.4,34.2,82.6s-12.1,60.5-34.2,82.6s-51.4,34.2-82.6,34.2
				s-60.5-12.1-82.6-34.2s-34.2-51.4-34.2-82.6s12.1-60.5,34.2-82.6S-96.2,280.2-65,280.2 M-65,278.2
				c-65.6,0-118.8,53.2-118.8,118.8S-130.6,515.8-65,515.8S53.8,462.6,53.8,397S0.6,278.2-65,278.2L-65,278.2z"/>
		</g>
	</g>
	<g id="Ellipse_1_copy_1_">
		<g>
			<circle class="st2" cx="-65" cy="397" r="114"/>
		</g>
	</g>
	<g id="A">
		<g>
			<path class="st1" d="M-44.2,429.6h-41.7l-6.9,19.9h-22l37.6-104.8h24.4l37.6,104.8h-22.2L-44.2,429.6z M-65,369l-15.1,43.8h30.3
				L-65,369z"/>
		</g>
	</g>
</g>
<g id="b_1_">
	<g id="Ellipse_1_2_">
		<g>
			<path class="st3" d="M-65,280.2c31.2,0,60.5,12.1,82.6,34.2s34.2,51.4,34.2,82.6s-12.1,60.5-34.2,82.6s-51.4,34.2-82.6,34.2
				s-60.5-12.1-82.6-34.2s-34.2-51.4-34.2-82.6s12.1-60.5,34.2-82.6S-96.2,280.2-65,280.2 M-65,278.2
				c-65.6,0-118.8,53.2-118.8,118.8S-130.6,515.8-65,515.8S53.8,462.6,53.8,397S0.6,278.2-65,278.2L-65,278.2z"/>
		</g>
	</g>
	<g id="Ellipse_1_copy_2_">
		<g>
			<circle class="st3" cx="-65" cy="397" r="114"/>
		</g>
	</g>
	<g id="B">
		<g>
			<path class="st1" d="M-57.7,449.6h-45.1V344.9h43.2c21.9,0,34,11.4,34,27c0,12.8-7.6,20.7-17.9,24c11.9,2.1,20.2,13,20.2,25.3
				C-23.2,437.9-36,449.6-57.7,449.6z M-62.7,361.8h-19.2v26.2h19.2c9.9,0,15.6-4.5,15.6-13C-47.1,366.6-52.8,361.8-62.7,361.8z
				 M-61.2,404.3h-20.7v28.2h21.2c10.2,0,16.2-4.9,16.2-13.8C-44.5,409.7-51,404.3-61.2,404.3z"/>
		</g>
	</g>
</g>
<g id="b_copy_1_">
	<g id="Ellipse_1_3_">
		<g>
			<path class="st4" d="M-65,280.2c31.2,0,60.5,12.1,82.6,34.2s34.2,51.4,34.2,82.6s-12.1,60.5-34.2,82.6s-51.4,34.2-82.6,34.2
				s-60.5-12.1-82.6-34.2s-34.2-51.4-34.2-82.6s12.1-60.5,34.2-82.6S-96.2,280.2-65,280.2 M-65,278.2
				c-65.6,0-118.8,53.2-118.8,118.8S-130.6,515.8-65,515.8S53.8,462.6,53.8,397S0.6,278.2-65,278.2L-65,278.2z"/>
		</g>
	</g>
	<g id="Ellipse_1_copy_3_">
		<g>
			<circle class="st5" cx="-65" cy="397" r="114"/>
		</g>
	</g>
	<g id="I">
		<g>
			<path class="st1" d="M-75.5,344.9h21v104.7h-21V344.9z"/>
		</g>
	</g>
</g>
</svg>
