<?xml version="1.0" encoding="utf-8"?>
<!-- Generator: Adobe Illustrator 19.0.0, SVG Export Plug-In . SVG Version: 6.00 Build 0)  -->
<svg version="1.1" id="s_1_" xmlns="http://www.w3.org/2000/svg" xmlns:xlink="http://www.w3.org/1999/xlink" x="0px" y="0px"
	 viewBox="-185 277 240 240" style="enable-background:new -185 277 240 240;" xml:space="preserve">
<style type="text/css">
	.st0{fill:#11A38A;}
	.st1{fill:#844603;}
	.st2{fill:#FFFFFF;}
</style>
<g id="Ellipse_1">
	<g>
		<path class="st0" d="M-65,280.2c31.2,0,60.5,12.1,82.6,34.2s34.2,51.4,34.2,82.6s-12.1,60.5-34.2,82.6s-51.4,34.2-82.6,34.2
			s-60.5-12.1-82.6-34.2s-34.2-51.4-34.2-82.6s12.1-60.5,34.2-82.6S-96.2,280.2-65,280.2 M-65,278.2c-65.6,0-118.8,53.2-118.8,118.8
			S-130.6,515.8-65,515.8S53.8,462.6,53.8,397S0.6,278.2-65,278.2L-65,278.2z"/>
	</g>
</g>
<g id="Ellipse_1_copy">
	<g>
		<circle class="st1" cx="-65" cy="397" r="114"/>
	</g>
</g>
<g id="S">
	<g>
		<path class="st2" d="M-64.2,450.6c-21.8,0-38.5-11.4-38.8-31.2h22.5c0.6,8.4,6.1,13.9,15.9,13.9c9.9,0,15.8-5.3,15.8-12.8
			c0-22.6-54-9-53.8-46.9c0-18.9,15.3-30.3,36.9-30.3c21.4,0,36.1,10.9,37.5,29.8h-23.1c-0.4-6.9-6-12.3-15-12.4
			c-8.3-0.3-14.4,3.8-14.4,12.3c0,21,53.7,9.3,53.7,46.2C-27.1,435.8-40.3,450.6-64.2,450.6z"/>
	</g>
</g>
</svg>
