<?xml version="1.0" encoding="utf-8"?>
<!-- Generator: Adobe Illustrator 19.0.0, SVG Export Plug-In . SVG Version: 6.00 Build 0)  -->
<svg version="1.1" id="Layer_1" xmlns="http://www.w3.org/2000/svg" xmlns:xlink="http://www.w3.org/1999/xlink" x="0px" y="0px"
	 viewBox="-280 358.9 50 77.1" style="enable-background:new -280 358.9 50 77.1;" xml:space="preserve">
<style type="text/css">
	.st0{fill:none;}
</style>
<path transform="translate(0.000000,481.000000) scale(0.100000,-0.100000)" class="st0" d="M-2522.6,482c5.2,1,12.4,2.1,16.5,2.5
	c3.9,0.3,14.9,3.4,24.3,6.7c9.4,3.3,18.5,6.1,20,6.3c1.6,0.3,6,2.1,10,4.4c46.4,27.1,70.1,49.4,93.8,88.4
	c12.2,19.8,15.9,26.6,14.1,25.4c-1-0.6-0.6,1.6,1,5.2c4.3,10.2,12.1,34.7,11.8,36.9c-0.1,1.1,0.7,7.6,1.9,14.3
	c2,12.9,2.8,43.5,1.2,50.9c-0.6,2.3-1.1,8.3-1.4,13.2c-0.1,5-0.7,9-1.3,9c-1,0-2,4.6-3.7,15.7c-0.6,3.6-1.4,6.7-2,7.2
	c-0.6,0.4-1.9,3.3-2.7,6.4c-3.3,10.3-12,29.7-19.4,42.8c-12.3,21.9-16.6,29.7-20.7,37.8c-2.3,4.3-4.4,8.2-5,8.6
	c-0.6,0.4-2.9,4.6-5,9.3c-2.1,4.7-4.4,8.9-5,9.3c-0.6,0.4-2.9,4.6-5,9.3c-2.1,4.7-4.4,8.9-4.9,9.3c-1,0.9-25.8,49.4-26.1,51.1
	c-0.4,2.3-1.9,5.3-2.7,6c-1.1,0.7-14.4,27.7-15.1,30.4c-1.3,5.3-2.6,8.2-3.6,8.2c-0.7,0-1.7,1.4-2.1,3.1c-0.6,1.9-3.1,7.7-5.8,13.3
	c-4.4,9.3-9.8,21.5-19.5,43.5c-2.1,5.2-5.7,13.2-7.7,17.9c-2.1,4.7-6.1,13.9-8.8,20.3c-2.7,6.3-5.5,13.9-6,16.7
	c-0.6,2.9-1.6,5.2-2.1,5.2c-0.7,0-4.7,10-5.1,12.9c-0.1,0.4-1.9,4.4-4,9.2c-2.1,4.6-4.1,9-4.3,9.9c-0.4,2.4-9.7,10.9-16.1,14.5
	c-8.7,5.2-24.9,5.8-33.6,1.3c-3.6-1.9-8.7-5.9-11.6-9c-5.9-6.2-14.5-21.4-13.4-23.3c0.9-1.6-12.3-34.2-17.4-42.9
	c-2-3.6-3-6.2-2.1-5.6c2.4,1.4-8.2-24.3-15.7-38.3c-3.3-6.4-5.8-12.3-5.5-13.3c0.7-1.9-17.1-39.7-22.4-47.6c-1.9-2.7-2.6-4.6-1.7-4
	c3.9,2.4-15-35.9-26-52.8c-1.4-2.3-1.9-3.7-0.9-3c1.1,0.7,0.6-1.4-1.3-5c-7.2-14.5-21.8-41.2-25.7-46.9c-2.3-3.3-3.9-6.6-3.3-7.3
	c0.4-0.7,0-1.9-0.9-2.4c-1.1-0.7-1.3-0.4-0.6,0.9c0.7,1.1,0.6,1.6-0.4,0.9c-0.9-0.6-1.3-1.7-0.9-2.7c0.6-1.7-18.5-37.4-26.6-49.3
	c-5.6-8.4-7.6-12.4-5.7-11.3c0.9,0.6-0.4-3.1-2.7-8c-5.6-12.3-12.9-32.6-13.4-37.7c-0.3-2.4-1.6-9.2-2.8-15
	c-1.3-5.8-2.5-16.2-2.8-22.9c-0.4-6.7-0.9-15-1.2-18.6c-0.4-3.4-0.1-7.3,0.6-8.6c0.6-1.1,1.4-7.3,2-13.6c0.8-11.6,4.8-30.6,8.9-41.9
	c1.1-3.3,1.9-6,1.6-6c-1.4,0,20.1-44,22.4-45.7c1.7-1.4,10.1-14.2,10.1-15.5c0-0.9,0.9-1.7,2-2.1c1.1-0.4,4.3-4.1,7-8.2
	c2.7-4,5.4-7.3,6-7.2c0.6,0.1,2.9-1.7,5.2-4.1c2.1-2.4,3.7-4.4,3.3-4.4c-0.3,0,0.6-1.1,1.9-2.6c1.4-1.6,2.9-2.6,3.3-2.3
	c0.4,0.1,4.3-2.9,8.6-6.9c4.3-4,8-7.2,8.3-7c0.1,0.1,2.7-1.4,5.6-3.4c3-2,4.7-3.6,4-3.6c-0.9-0.1,2.1-1.7,6.4-3.7
	c4.3-2,8.9-4.6,10-5.6c2.7-2.4,24-11.5,33.7-14.5c3.9-1.1,7.4-2.7,7.9-3.3c0.4-0.6,3-1.4,5.7-1.9c13-1.8,17.2-2.8,17.2-4
	c0-0.9,0.9-1.1,1.9-0.7c1.1,0.4,6.7,0.1,12.6-0.5C-2559.2,480-2532.9,480.1-2522.6,482z M-2571.6,558.2c-4.7,0.4-14.2,2.6-18,4.2
	c-2.3,1-5.2,1.9-6.3,2c-4.1,0.4-12.7,4-12.2,5.1c0.4,0.4-1.4,1.3-4,1.9c-5,1-19.6,9.2-19.6,11.2c0,0.6-0.6,0.9-1.3,0.4
	c-0.7-0.4-4.6,2.3-8.6,6.2c-4,3.9-7.3,6.6-7.3,6.2s-2.3,1.3-5,4c-2.7,2.6-4.7,5-4.4,5.3c0.3,0.3-2.7,3.9-6.6,7.9
	c-3.7,4-6.6,7.6-6.3,8c0.4,0.3-0.6,2-2.1,3.7c-3,3.1-17.1,30.5-17.1,33.2c0,0.9-1.3,5.6-2.9,10.6c-1.7,5-2.9,10.4-2.8,12
	c0.1,1.6,0,3.1,0,3.6c-1.7,5-2.4,16.5-1.8,34.6c0.3,10.4,4.5,28,7.8,33.2c1.3,2,2,4.3,1.4,5.2c-1.3,2,5.9,17.5,13.9,29.7
	c12.6,19.7,34.3,40,53.7,50.6c13.5,7.3,22,11,20.7,8.8c-0.6-1,1-0.6,3.6,0.7c8.7,4.6,35.3,10.8,33.5,7.7c-0.4-0.6,1-0.4,3,0.3
	c3.7,1.4,27.8,1.1,35.8-0.4c2.3-0.6,6.2-1.3,8.6-1.7c2.3-0.6,4.6-1.4,5-2c0.4-0.6,3-1.4,5.9-1.9c2.9-0.3,9-2.4,13.6-4.5
	c4.7-2.1,8.7-4,9.2-3.9c0.7,0.1,9.6-5.2,12.2-7.1c0.7-0.7,4.6-3.3,8.3-5.7c9-5.7,28-24.5,33.7-33.5c2.4-3.7,5-7.6,5.7-8.3
	c2.4-3.1,7.7-12.2,7-12.2c-0.4,0,1.1-3.4,3.6-7.7c2.3-4.3,4.6-10.6,5.1-14c0.6-3.4,1.4-6.4,2-6.9c0.6-0.5,1.4-2.7,2-5
	c0.4-2.4,1.1-6.3,1.7-8.6c1.6-8,2.1-32.1,0.8-35.8c-0.7-2-0.9-3.4-0.3-3c3,1.9-2.9-24.8-7.5-33.5c-1.3-2.6-1.7-4.1-0.9-3.6
	c2.3,1.3-4.5-13.9-11.3-25.5c-7.1-12-22.1-29.3-34.6-39.8c-12.6-10.5-44.7-28.1-41.3-22.7c0.6,0.9-1.3,0.3-4-1.3
	c-5.7-3.3-13.6-6.1-22.8-7.7C-2528.1,557.5-2563,557.3-2571.6,558.2z M-2539.6,612.6c3.1,0.6,16.6,1.2,30,1.1
	c24,0,24.5,0.1,30.3,3.8c8.7,5.6,13.1,13.4,13.8,24.3c0.4,5,1.6,13.2,3,18.3c1.3,5.2,2.3,11.6,2.5,14.3c0.1,2.7,0.4,7.4,0.6,10.4
	c0.3,4.1,1.7,6.9,6.2,11.7l5.9,6.4l-0.1,21.2c-0.1,20.7-1.8,31.2-5.4,33.5c-1.3,0.9-2.1,10.6-2.4,29.3c0,1.7-2.3,5.4-5.3,8.3
	c-6,5.9-11.6,6.5-18.6,2c-6.9-4.1-9.4-10.2-9.2-22.3l0.1-10.3l-60.1-0.4c-32.9-0.1-60.5-0.6-61.2-1c-0.6-0.4-1.1,4.3-1.1,10.6
	c-0.1,11.6-2.2,19.3-6.3,22.5c-1.1,1-5.6,1.9-9.7,1.9c-6.4,0-8.3-0.6-11.6-4.1c-3.4-3.4-4-5.3-4.8-15.7c-0.6-6.4-0.5-13.6,0-15.9
	c0.7-3.1,0-4.9-2.9-7.7c-4-4.1-4-3.6-4.1-34.6l0-17.2l5-5.7c2.9-3.1,5.3-7.6,5.6-10s1-5.3,1.6-6.6c0.7-1.1,1.7-6.3,2.1-11.4
	c0.4-5,1.4-11.4,2.2-14.2c0.7-2.7,1.6-8.3,2.1-12.2c0.4-4,1.9-9.4,3.2-12.2c3-6.3,9.3-14.7,10.3-13.9c0.3,0.4,3-0.3,5.9-1.4
	c4-1.7,11.9-2.2,33.9-2.5c15.7,0,29.6-0.5,30.8-0.9C-2546.3,611.8-2542.8,611.9-2539.6,612.6z M-2604.5,628.7
	c-0.6,0.9-2.9,2.4-5,3.6c-5.3,2.6-7.2,6.6-10.1,20.7c-3.4,15.6-3.1,23.2,0.9,25.8c2.4,1.4,16.2,2,70.3,2.2l67.1,0.3l3-3.4
	c2.6-2.6,3-4.6,2.4-9.4c-1-10-3.5-20.2-5.9-24.8c-1.3-2.4-2.3-5-2.3-5.9c0-2.6-3.7-6.3-5.3-5.4c-0.7,0.4-2.1,0-3.3-0.9
	c-1.3-1-4.3-2.3-6.9-2.9C-2506.5,626.9-2603.2,627-2604.5,628.7z M-2564.3,695.5l-7.3,1.4l-0.3,9.3c-0.4,9.2-0.3,9.3,2.9,8.4
	c1.7-0.6,12-1,22.9-1l19.7,0.1l0.9-4.6c0.4-2.6,0.6-6.4,0.3-8.7c-0.4-3.7-1-4.1-6.9-4.9C-2544.6,694.1-2557.2,694.2-2564.3,695.5z
	 M-2469.8,708.9c0.6,1.1,0,1.1-2.1,0c-1.7-1-3.9-1.1-4.9-0.6c-0.9,0.6-2.3,1.1-3.1,1.1c-2.3,0-5.3,7.6-4.3,10.7
	c1.4,4.6,6.6,8.6,10.7,8.6c4.6,0,8.2-3.6,10-10c1.1-3.9,0.9-5-2.1-8C-2469.2,707.2-2471.5,706.2-2469.8,708.9z M-2632,709.7
	c-4,4.3-3.1,10.7,1.6,15c10.2,8.7,22.5-5.1,13.1-14.5C-2621.7,705.6-2627.9,705.5-2632,709.7z M-2591.9,727.6
	c-0.3,1,0.4,2.7,1.6,3.9c3.1,3.1,81.8,3.3,83.7,0.1c3.3-5.2,1-5.4-42.4-5.5C-2579.2,726.1-2591.5,726.5-2591.9,727.6z
	 M-2591.7,746.8l0,3.6l42.6,0.3c35.3,0.3,42.8,0.1,43.5-1.5c2.1-5.6-0.9-6-44.4-5.9l-41.8-0.1l0,3.6L-2591.7,746.8z"/>
</svg>
