<?xml version="1.0" encoding="utf-8"?>
<!-- Generator: Adobe Illustrator 19.0.0, SVG Export Plug-In . SVG Version: 6.00 Build 0)  -->
<svg version="1.1" id="Layer_1" xmlns="http://www.w3.org/2000/svg" xmlns:xlink="http://www.w3.org/1999/xlink" x="0px" y="0px"
	 viewBox="-231 247 148 300" style="enable-background:new -231 247 148 300;" xml:space="preserve">
<style type="text/css">
	.st0{fill:#10B639;}
</style>
<g transform="translate(0.000000,300.000000) scale(0.050000,-0.050000)">
	<path class="st0" d="M-2409.1-4884.1c303,93,539,386,517,644c-10,124-7,143,21,143c30,0,33,44,33,430c0,417-1,430-40,430
		c-77,0-39,32,85,71c117,36,125,43,131,104c7,74,4,75-128,35c-54-16-103-30-110-30c-13,0-31,599-49,1610c-6,330-15,620-20,644
		c-6,30,3,51,31,66c60,32,63,838,2,854c-33,8-39,38-52,253c-19,336-31,356-270,478c-61,31-88,51-60,45l50-11l-52,29
		c-90,52-340,111-507,121l-161,9l140-19c77-11,147-22,155-24c8-3-183-5-425-5c-242,0-433,2-425,5c8,2,78,12,155,22
		c118,15,126,18,50,20c-121,3-432-63-542-114c-50-25-67-38-38-33c27,6-4-17-70-49c-235-115-256-153-267-474c-7-225-11-247-45-247
		c-36,0-38-23-38-430c0-385,3-430,33-430c29,0,31-44,20-485c-7-267-18-789-26-1160c-7-371-17-675-22-675s-58,14-119,32
		c-129,37-167,20-131-59c21-46,73-71,210-102c63-14,74-51,15-51c-37,0-40-15-44-175c-10-529-6-669,22-684c21-12,27-55,25-164
		c-7-250,239-539,534-628C-3683.1-4930.1-2549.1-4927.1-2409.1-4884.1z M-3403.1-4882.1c157,3,413,3,570,0s28-6-285-6
		C-3432.1-4888.1-3560.1-4885.1-3403.1-4882.1z M-2396.1-4821.1c13,20,69,62,126,93c56,31,133,80,172,108c51,37,62,41,40,13
		C-2161.1-4740.1-2465.1-4932.1-2396.1-4821.1z M-3373.1-4842.1c140,3,370,3,510,0s25-6-255-6
		C-3399.1-4848.1-3513.1-4845.1-3373.1-4842.1z M-3938.1-4814.1c-105,63-218,156-240,197c-20,38,200-96,310-188
		C-3793.1-4868.1-3839.1-4874.1-3938.1-4814.1z M-3724.1-4786.1c-22,9-26,28-14,79c8,37,16,169,18,294c1,124,8,327,15,450
		c12,234-4,424-33,393c-29-29-105-824-96-1002l9-165l-52,33c-109,71-140,98-140,123c-1,15-11,20-26,12c-14-8-19-7-11,1
		c8,9,1,41-15,73c-22,43-29,145-30,442c-1,212-9,435-18,496c-21,142-33,137,215,74c426-110,859-136,1219-73c171,29,168,31,141-71
		c-15-57-13-230,7-610c20-367,22-535,8-545C-2551.1-4799.1-3680.1-4803.1-3724.1-4786.1z M-2414.1-4652.1c25,106-18,708-75,1057
		l-11,72l136,35c259,68,270,66,210-43c-17-30-24-177-24-478c0-489-13-545-152-667C-2423.1-4757.1-2437.1-4753.1-2414.1-4652.1z
		 M-1952.1-3617.1l1,410l14-290c20-405,18-813-2-650C-1947.1-4081.1-1953.1-3843.1-1952.1-3617.1z M-4301.1-3387.1l18,180l2-242
		c2-133-4-367-12-520l-15-278l-5,340C-4316.1-3720.1-4311.1-3486.1-4301.1-3387.1z M-1897.1-3682.1c2,81,5,89,23,51
		c19-40,9-146-14-146C-1894.1-3777.1-1897.1-3734.1-1897.1-3682.1z M-4359.1-3610.1c15,15,21-2,21-60c0-105-28-133-36-36
		C-4378.1-3665.1-4371.1-3622.1-4359.1-3610.1z M-2082.1-3382.1c-12,14-17,31-12,36c6,6-6,79-25,164c-35,149-35,152,1,106
		c57-77,80-183,77-353c-3-103-7-127-12-68C-2057.1-3448.1-2070.1-3396.1-2082.1-3382.1z M-3858.1-3429.1c-127,29-232,52-235,52
		c-19,0,3,122,45,254c58,182,197,415,239,399c142-54,1007-63,1291-13c128,23,131,20,250-203c66-125,148-406,124-429
		c-15-16-241-67-434-98C-2866.1-3515.1-3569.1-3494.1-3858.1-3429.1z M-4178.1-3297.1c11,63,9,94-7,105c-15,9-11,14,12,15
		c19,0,35,13,35,29s8,34,18,40s6-44-10-111s-24-129-18-138c8-13-30-42-43-32C-4193.1-3388.1-4187.1-3347.1-4178.1-3297.1z
		 M-2018.1-3166.1c0,16-30,63-67,104c-88,98-119,163-165,345c-49,195-58,1813-11,1947c29,82,133,213,169,213c12,0-2-25-30-55
		c-130-139-126-106-126-1085c0-1027,17-1152,181-1329c47-51,104-202,67-180C-2010.1-3200.1-2018.1-3182.1-2018.1-3166.1z
		 M-4237.1-3134.1c10,39,38,88,61,109c159,143,183,303,193,1273c9,927,3,989-116,1116c-33,35-55,70-48,77c23,21,142-134,167-218
		c17-58,24-324,25-926c1-1015-13-1120-177-1327c-36-46-75-108-86-138C-4247.1-3244.1-4261.1-3220.1-4237.1-3134.1z M-2136.1-2829.1
		c-72,193-123,1012-63,1012c85,0,119-46,116-158c-3-174,23-843,37-932C-2028.1-3019.1-2082.1-2972.1-2136.1-2829.1z M-4180.1-2874.1
		c11,48,24,298,30,556c10,501,8,494,110,500c39,2,18-716-27-898C-4117.1-2917.1-4223.1-3066.1-4180.1-2874.1z M-1973.1-2342.1
		c4,85,7,15,7-155c0-171-3-240-7-155S-1977.1-2427.1-1973.1-2342.1z M-3758.1-2685.1l-90,12l6,848c4,504-2,876-13,918
		c-18,63-15,73,34,108c185,132,1093,149,1342,26l68-34l-1-926c-1-510-6-931-12-936C-2464.1-2710.1-3492.1-2722.1-3758.1-2685.1z
		 M-4273.1-2233.1c4,69,7,18,7-114s-3-189-7-126S-4277.1-2302.1-4273.1-2233.1z M-4258.1-1973.1c0,18,9,39,20,46c12,7,20-18,20-64
		c-1-56-6-68-20-46C-4249.1-2021.1-4258.1-1992.1-4258.1-1973.1z M-2186.1-1745.1c-28,11-32,61-32,360v347l51,13c69,17,64,41,80-367
		C-2071.1-1789.1-2071.1-1789.1-2186.1-1745.1z M-4150.1-1702.1c6,30,14,197,17,370c5,322,8,332,83,303c42-16,49-698,7-715
		C-4119.1-1774.1-4161.1-1758.1-4150.1-1702.1z M-1993.1-1431.1c5,46,8,3,8-96s-4-137-8-84
		C-1997.1-1559.1-1997.1-1478.1-1993.1-1431.1z M-4253.1-1282.1c5,41,8,7,8-75c0-83-3-116-8-75
		C-4257.1-1391.1-4257.1-1323.1-4253.1-1282.1z M-2058.1-1107.1c0,38,9,70,20,70c11,0,20-32,20-70c0-39-9-70-20-70
		C-2049.1-1177.1-2058.1-1146.1-2058.1-1107.1z M-2188.1-765.1c58,152,90,153,90,2c0-119-5-135-55-175l-55-43l-7,65
		C-2218.1-880.1-2206.1-812.1-2188.1-765.1z M-4089.1-945.1c-44,29-49,46-49,163c0,130,0,131,40,95c43-39,80-147,80-235
		C-4018.1-986.1-4023.1-988.1-4089.1-945.1z M-2032.1,212.9l1,340l14-290c8-160,13-479,13-710l-1-420l-14,370
		C-2027.1-294.1-2032.1,25.9-2032.1,212.9z M-2414.1-738.1c-211,154-1131,161-1398,12c-97-54-95-56-136,101c-48,185-41,411,15,463
		c245,229,1385,229,1630,0c67-62,60-369-13-560C-2341.1-788.1-2344.1-788.1-2414.1-738.1z M-4217.1,138.9c16,25,19-15,10-154
		c-6-104-13-315-16-470c-3-206-6-164-10,154C-4237.1-42.1-4231.1,116.9-4217.1,138.9z M-4300.1-249.1c14,48,18,20,18-118l-1-180
		l-17,118C-4310.1-360.1-4310.1-284.1-4300.1-249.1z M-1963.1-247.1c20,63,37-53,26-178l-9-102l-15,120
		C-1969.1-341.1-1970.1-269.1-1963.1-247.1z M-2695.1,74.9c-391,74-942,22-1287-121c-30-13-34,8-40,205c-3,127,2,216,12,209
		c10-6,12,13,4,44c-8,32-4,66,10,83c17,21,17,28-1,28c-28,0-18,84,20,165c108,235,1155,307,1576,110c81-39,137-115,113-155
		c-6-9,4-31,21-48c20-21,23-32,8-32c-16,0-18-8-4-25c19-24,50-563,33-580c-4-4-71,13-149,38S-2599.1,56.9-2695.1,74.9z
		 M-4213.1,486.9c5,48,8,14,8-74s-3-126-8-86C-4217.1,367.9-4217.1,439.9-4213.1,486.9z"/>
	<path class="st0" d="M-2728.1-3454.6c0-0.4-42.6-3.8-42.5-5c0.1-1.8,96.2,1.6,170,12.5c17.2,2.5,33.9,5,56.2,10.5
		c19.8,4.9,26.3,7.8,46.5,12.6c21.7,5.1,35.3,6.7,52.3,9.4c14.5,2.2,38.9,7.3,87.5,17.5c30.3,6.3,69.9,14.8,116.7,25.3l50,19
		c-3.1,18.6-6.1,37.1-9.2,55.7c-8,30.1-22,77-45,132.5c-28.2,68-35.9,66.8-65,137.5c-20.1,48.8-30.8,84.2-62.5,152.5
		c-19.2,41.2-26.9,53.5-40,65c-39.4,34.8-93.2,33.6-122.5,32.5c-127.4-4.6-220.1-21.3-292.5-30c-66.5-8-131.8-8.6-262.5-10
		c-80.3-0.8-141.6,0.6-225,2.5c-80.5,1.9-116.2,3.7-137.5,5c-41.4,2.4-41.7,3.3-132.5,10c-108.4,8-105.7,6.5-130,10
		c-82.5,11.7-87.4,24.4-110,15c-27.5-11.5-47-57.8-85-150c-11.2-27.2-20-50.7-30-77.5c-8.4-22.4-16-43.6-37.5-105
		c-39.7-113.5-50.5-147.3-43.3-196.7c1.5-10.1,1.5-15.4,4-20.4c27.3-55.1,108.3-68.5,306-96.6c214.5-30.4,204.6-31.3,260.8-36.3
		c82.3-7.4,143.9-9.2,257.5-12.5c100.3-2.9,150.4-4.3,215-2.5C-2842.3-3468.2-2728.2-3453.9-2728.1-3454.6z"/>
	<path class="st0" d="M-2531.1-2262.1c19,323-4,1345-30,1345c-19,0-19-1071,1-1410l12-220L-2531.1-2262.1z"/>
	<path class="st0" d="M-3671.1-2158.1c17,474,15,1109-4,1211c-22,115-43-420-42-1018C-3715.1-2553.1-3690.1-2661.1-3671.1-2158.1z"
		/>
</g>
<path class="st0" d="M-240.6,387.1"/>
<rect x="-184.9" y="346.3" class="st0" width="57.7" height="80.1"/>
<path class="st0" d="M-118.7,334.6c0.9-2.3,1.4-4.2,1.8-5.8c0.5-2.5,0.7-4.5,0.8-6.3c0.1-1.4,0.2-3.2,0-5.5
	c-0.2-2.5-0.3-3.7-0.8-4.8c-1.2-2.7-4-3.8-7.3-5c-2-0.8-3.3-1-10.2-2.3c-5.4-0.9-8.1-1.4-8.8-1.5c-4.5-0.5-7.9-0.5-12.3-0.5
	c-3.3,0-6.8,0-11.5,0.5c-4.7,0.5-8.1,1.1-11.3,1.8c-2.5,0.5-4.8,1.1-9.3,2.3c-5.4,1.4-6.5,1.8-7.3,3c-0.8,1.1-0.8,3.2-0.8,7.3
	c0,1.6,0.1,3,0.3,5.8c0.6,8.5,0.9,9.2,1.5,9.5c1.3,0.7,2.4-0.9,7.3-2.8c2.5-0.9,4.5-1.4,7.5-2c3.3-0.7,5.9-1,7.8-1.3
	c1.1-0.1,4.6-0.5,10.5-0.8c6-0.2,9-0.3,13.3,0c6.4,0.5,11.1,1.7,12.5,2c3.5,0.9,6.3,1.9,8.5,2.8"/>
<path class="st0" d="M-114.4,298.1c0-1.5-0.1-3.7-0.3-6.3c-0.3-4.3-0.6-7.6-1-10.8c-0.7-6.5-0.9-5.2-1-7.8c-0.1-2.5,0-3.6-0.8-5.3
	c-1-2.2-2.7-3.5-3.8-4.3c-0.6-0.5-1.8-1.2-5.8-2.5c-1.9-0.6-4.2-1.3-7.7-2c-3.8-0.7-6.6-0.9-9.6-1.1c-4.8-0.3-8.4-0.3-11.1-0.3
	c-4.3,0.1-7.6,0.3-8.8,0.4c-3.5,0.3-6.3,0.5-10,1.1c-2.6,0.5-4.5,0.9-8.3,1.9c-0.9,0.2-3,0.8-5.8,1.6c-4.5,1.4-5.5,2.1-6.4,3
	c-1.4,1.4-2,3-2.1,3.3c-0.4,0.9-0.5,1.9-0.9,3.6c-0.1,0.6-0.2,1.1-0.3,1.6c-0.1,0.5-0.1,1.1-0.1,2.1c0,1.4,0,2.6,0,3.1
	c0,1.6,0.1,2,0.1,3.3c0,1.2,0,2.2,0,4.1c0,3.3-0.1,5-0.1,6c-0.2,3.3-0.5,3.9,0,4.4c0.7,0.7,2-0.1,6.9-1.8c2.3-0.8,4-1.4,6.3-2
	c0.9-0.2,2.4-0.6,5.4-1.3c2.8-0.6,4.3-1,5.3-1.1c2-0.3,3.1-0.4,5.8-0.6c5.7-0.5,5.4-0.7,8.3-0.9c3-0.2,5.3-0.1,9.9,0.2
	c4.1,0.2,6.4,0.3,9.6,0.8c2.1,0.3,4.2,0.8,8.3,1.8c3.5,0.8,6.3,1.5,8.2,2"/>
<path class="st0" d="M-131.2,536c-0.6-10.1-0.9-15.7-1-15.7c-0.1,0,0.1,6.3,0.2,6.3c0,0,0.1-5.4-0.3-12c-0.1-2-0.2-3.5-0.5-6.7
	c-0.1-1-0.4-3.5-0.8-8.7c-0.2-2.9-0.3-4.3-1-6.3c-0.5-1.4-1.3-3.5-3.2-4.8c-2.1-1.5-4.4-1.4-6-1.3c-4.6,0.1-9.2-0.3-13.8-0.3
	c-6.3,0-10.4-0.5-15.8,0.7c-1.5,0.3-3.9,0.9-5.3,3c-0.9,1.4-1,2.8-1,3.7c-0.2,3.8-0.7,7.5-0.8,11.3c0,1.6-0.4,5-1,11.8
	c-0.3,3.6-0.4,4.4-0.8,8.7c-0.4,4.1-0.7,7.5-0.8,9.7"/>
</svg>
