<?xml version="1.0" encoding="utf-8"?>
<!-- Generator: Adobe Illustrator 19.0.0, SVG Export Plug-In . SVG Version: 6.00 Build 0)  -->
<svg version="1.1" id="Layer_1" xmlns="http://www.w3.org/2000/svg" xmlns:xlink="http://www.w3.org/1999/xlink" x="0px" y="0px"
	 viewBox="-231 247 148 300" style="enable-background:new -231 247 148 300;" xml:space="preserve">
<style type="text/css">
	.st0{fill:none;}
</style>
<path transform="translate(0.000000,300.000000) scale(0.050000,-0.050000)" class="st0" d="M-2398.5-4880.9
	c302.6,94.3,537.3,388.3,514.2,646.2c-10.5,124-7.6,143,20.4,143.1c30,0.1,32.8,44.1,31.1,430.1c-1.8,417-2.9,430-41.9,429.8
	c-77-0.3-39.1,31.8,84.7,71.4c116.8,36.5,124.8,43.5,130.5,104.6c6.7,74,3.7,75-128.2,34.4c-53.9-16.2-102.9-30.4-109.9-30.5
	c-13-0.1-33.6,598.9-56,1609.8c-7.4,330-17.7,619.9-22.8,643.9c-6.1,30,2.8,51,30.7,66.1c59.9,32.3,59.4,838.3-1.7,854
	c-33,7.9-39.2,37.8-53.1,252.8c-20.5,335.9-32.5,355.9-272.1,476.8c-61.1,30.7-88.2,50.6-60.2,44.7l50-10.8l-52.1,28.8
	c-90.2,51.6-340.5,109.5-507.5,118.8l-161,8.3l140.1-18.4c77-10.7,147.1-21.4,155.1-23.3c8-3-183-5.8-425-6.8
	c-242-1-433,0.1-425,3.2c8,2,77.9,12.3,154.9,22.7c117.9,15.5,125.9,18.5,49.9,20.2c-121,2.5-431.7-64.9-541.5-116.3
	c-49.9-25.2-66.8-38.3-37.9-33.2c27,6.1-3.9-17-69.8-49.3c-234.5-116-255.3-154.1-264.9-475.1c-6-225-9.9-247-43.9-247.2
	c-36-0.2-37.9-23.2-36.1-430.2c1.7-385,4.9-430,34.9-429.9c29,0.1,31.2-43.9,22.1-484.9c-5.8-267-14.6-789.1-21-1160.1
	c-5.4-371-14.1-675.1-19.1-675.1c-5,0-58.1,13.7-119.1,31.5c-129.2,36.4-167.1,19.3-130.7-59.6c21.2-45.9,73.3-70.7,210.4-101.1
	c63.1-13.7,74.2-50.7,15.2-50.9c-37-0.2-39.9-15.2-43.2-175.2c-7.7-529-3.1-669,25-683.9c21.1-11.9,27.2-54.9,25.7-163.9
	c-5.9-250,241.3-538,536.7-625.7C-3672.3-4932.4-2538.3-4924.5-2398.5-4880.9z M-3392.5-4883.2c157,3.7,413,4.8,570,2.5
	s28-5.9-285-7.2C-3421.5-4889.4-3549.5-4886.9-3392.5-4883.2z M-2385.8-4817.9c12.9,20.1,68.7,62.3,125.6,93.5
	c55.9,31.2,132.7,80.6,171.5,108.7c50.8,37.2,61.8,41.3,39.9,13.2C-2151.1-4735.9-2454.3-4929.2-2385.8-4817.9z M-3362.7-4843.1
	c140,3.6,370,4.6,510,2.2c140-2.4,25-5.9-255-7.1C-3388.6-4849.2-3502.7-4846.7-3362.7-4843.1z M-3927.8-4817.5
	c-105.3,62.5-218.7,155.1-240.8,196c-20.2,37.9,200.4-95.1,310.8-186.7C-3782.5-4870.9-3828.5-4877.1-3927.8-4817.5z
	 M-3713.9-4788.6c-22,8.9-26.1,27.9-14.3,78.9c7.8,37,15.3,169.1,16.7,294.1c0.5,124,6.6,327,13.1,450.1c11,234-5.8,424-34.7,392.9
	c-28.9-29.1-101.4-824.4-91.7-1002.4l9.7-165l-52.1,32.8c-109.3,70.5-140.4,97.4-140.5,122.4c-1.1,15-11.1,20-26.1,11.9
	c-14-8.1-19-7.1-11,1c8,9,0.8,41-15.3,72.9c-22.2,42.9-29.6,144.9-31.9,441.9c-1.9,212-10.9,435-20.1,495.9
	c-21.6,141.9-33.6,136.9,214.7,74.9c426.5-108.2,859.6-132.3,1219.3-67.7c170.9,29.7,167.9,31.7,141.3-70.4
	c-14.8-57.1-12-230.1,9.6-610c21.6-366.9,24.3-534.9,10.4-545C-2540.9-4796.6-3669.8-4805.4-3713.9-4788.6z M-2404.5-4649
	c24.5,106.1-21.1,707.9-79.6,1056.7l-11.3,72l135.8,35.6c258.7,69.1,269.7,67.2,210.2-42.1c-16.9-30.1-23.2-177.1-21.9-478.1
	c2.1-489-10.6-545.1-149.1-667.7C-2413-4754-2427.1-4750.1-2404.5-4649z M-1947-3612l-0.8,410l15.3-289.9
	c21.8-404.9,21.5-812.9,0.8-650C-1940-4075.9-1947-3838-1947-3612z M-4296.9-3392.1l17.2,180.1l3-242c2.6-133-2.4-367-9.8-520
	l-13.8-278.1l-6.5,340C-4310.5-3725.2-4306.5-3491.2-4296.9-3392.1z M-1891.7-3676.7c1.6,81,4.6,89,22.8,51.1
	c19.2-39.9,9.6-146-13.4-146.1C-1888.3-3771.7-1891.5-3728.7-1891.7-3676.7z M-4354-3615.4c14.9,15.1,21-1.9,21.3-59.9
	c0.5-105-27.4-133.1-35.8-36.2C-4372.7-3670.5-4365.9-3627.4-4354-3615.4z M-2078-3377.5c-12.1,13.9-17.1,30.9-12.2,35.9
	c6,6-6.3,79-25.7,163.9c-35.6,148.8-35.7,151.8,0.5,106c57.3-76.8,80.8-182.7,78.5-352.7c-2.6-103-6.5-127-11.7-68.1
	C-2052.7-3443.4-2065.9-3391.5-2078-3377.5z M-3853.8-3432.2c-127.1,28.5-232.2,51-235.2,51c-19-0.1,2.5,122,43.9,254.2
	c57.2,182.2,195.2,415.8,237.3,400c142.2-53.4,1007.3-58.6,1291-7.4c127.9,23.6,130.9,20.6,250.9-201.9
	c66.5-124.7,149.8-405.4,125.9-428.5c-14.9-16.1-240.7-68-433.6-99.9C-2861.4-3513.9-3564.5-3496-3853.8-3432.2z M-4174.3-3301.6
	c10.7,63,8.6,94-7.5,105c-15,8.9-11.1,14,11.9,15.1c19,0.1,34.9,13.2,34.9,29.2c-0.1,16,7.9,34,17.8,40.1c10,6,6.2-44-9.5-111
	c-15.7-67.1-23.4-129.1-17.4-138.1c8.1-13-29.8-42.1-42.9-32.2C-4188.9-3392.7-4183.1-3351.6-4174.3-3301.6z M-2014.9-3161.3
	c-0.1,16-30.3,62.9-67.4,103.7c-88.4,97.6-119.7,162.5-166.5,344.3c-49.8,194.8-65.8,1812.7-19.4,1946.9
	c28.6,82.1,132.1,213.6,168.1,213.7c12,0.1-1.9-25-29.8-55.1c-129.4-139.6-125.5-106.5-121.3-1085.5
	c4.4-1027,22-1151.9,186.7-1328.2c47.2-50.8,104.9-201.5,67.8-179.7C-2006.8-3195.2-2014.9-3177.3-2014.9-3161.3z M-4234-3138.9
	c9.8,39,37.6,88.2,60.5,109.3c158.4,143.7,181.7,303.8,187.5,1273.8c5,927-1.3,989-120.8,1115.5c-33.2,34.9-55.3,69.8-48.3,76.8
	c22.9,21.1,142.6-133.4,167.9-217.3c17.3-57.9,25.4-323.9,29-925.9c5.4-1015-8.2-1120-171.3-1327.8
	c-35.8-46.2-74.5-108.3-85.4-138.4C-4243.6-3248.9-4257.7-3225-4234-3138.9z M-2134.4-2824.8c-72.8,192.7-127.4,1011.5-67.4,1011.7
	c85,0.4,119.2-45.5,116.7-157.5c-2.2-174,26.6-842.9,41-931.8C-2025.6-3014.3-2079.8-2967.5-2134.4-2824.8z M-4178.2-2878.6
	c10.8,48,22.7,298.1,27.6,556.1c7.8,501,5.9,494,107.8,500.5c39,2.2,21.1-715.9-23.1-898.1
	C-4115-2921.3-4220.3-3070.8-4178.2-2878.6z M-1973.5-2337.1c3.6,85,6.9,15,7.7-155c0.7-171-2-240-6.3-155
	C-1976.5-2562.1-1977.1-2422.1-1973.5-2337.1z M-3757-2687.8l-90.1,11.6l2.3,848c1.8,504-5.8,876-17,917.9
	c-18.3,62.9-15.3,72.9,33.5,108.1c184.4,132.8,1092.3,153.7,1341.9,31.8l68.1-33.7l3-926c1.2-510-2-931-8-936
	C-2462.9-2707.2-3490.8-2723.6-3757-2687.8z M-4273.9-2238c3.7,69,6.9,18,7.5-114c0.6-132-2.2-189-6.5-126
	C-4277.2-2415-4277.6-2307-4273.9-2238z M-4260.1-1978c-0.1,18,8.8,39,19.8,46.1c12,7.1,20.1-17.9,20.3-63.9
	c-0.8-56-5.7-68-19.8-46.1C-4250.9-2025.9-4260-1997-4260.1-1978z M-2189.1-1741c-28,10.9-32.3,60.9-33.6,359.9l-1.5,347l50.9,13.2
	c68.9,17.3,63.8,41.3,81.6-366.7C-2073.9-1784.5-2073.9-1784.5-2189.1-1741z M-4153.2-1706.5c5.9,30,13.1,197.1,15.4,370.1
	c3.6,322,6.6,332,81.7,303.4c42.1-15.8,52-697.8,10.1-715C-4121.9-1778.4-4164-1762.5-4153.2-1706.5z M-1997.4-1426.2
	c4.8,46,8,3,8.4-96c0.4-99-3.4-137-7.6-84C-2000.9-1554.2-2001.2-1473.2-1997.4-1426.2z M-4258-1286.9c4.8,41,8,7,8.3-75
	c0.4-83-2.5-116-7.7-75C-4261.6-1396-4261.9-1328-4258-1286.9z M-2063.8-1102.5c-0.2,38,8.7,70,19.7,70.1c11,0,20.1-31.9,20.3-69.9
	c0.2-39-8.7-70-19.7-70.1C-2054.5-1172.4-2063.7-1141.5-2063.8-1102.5z M-2195.3-761c57.3,152.2,89.3,153.4,90,2.4
	c0.5-119-4.4-135-54.2-175.2l-54.8-43.2l-7.3,65C-2224.8-876.1-2213.1-808.1-2195.3-761z M-4095.5-949.2
	c-44.1,28.8-49.2,45.8-49.7,162.8c-0.6,130-0.6,131,39.6,95.2c43.2-38.8,80.6-146.7,81-234.7
	C-4024.3-989.9-4029.3-991.9-4095.5-949.2z M-2043.5,217.6l-0.5,340l15.3-289.9c8.7-160,15.1-478.9,16.1-709.9l0.8-420l-15.6,369.9
	C-2036.3-289.3-2042.7,30.6-2043.5,217.6z M-2421.4-735c-211.7,153.1-1131.7,156.1-1398,6c-96.8-54.4-94.8-56.4-136.4,100.4
	c-48.8,184.8-42.8,410.8,13,463.1c244,230.1,1384,235,1630,7c67.3-61.7,61.6-368.7-10.6-560.1
	C-2348.2-784.7-2351.2-784.7-2421.4-735z M-4228.2,134.2c15.9,25.1,19.1-14.9,10.7-154c-5.6-104-11.6-315.1-14-470.1
	c-2.1-206-5.3-164-10.7,154C-4247.4-46.9-4242.1,112.1-4228.2,134.2z M-4309.5-254.2c13.8,48.1,17.9,20.1,18.5-117.9l-0.2-180
	l-17.5,117.9C-4319-365.2-4319.4-289.2-4309.5-254.2z M-1972.5-242.1c19.7,63.1,37.2-52.8,26.8-177.9l-8.6-102l-15.5,119.9
	C-1978.1-336.1-1979.4-264.1-1972.5-242.1z M-2705.9,76.8c-391.3,72.3-942.1,17.9-1286.5-126.6c-29.9-13.1-34,7.9-40.9,204.8
	c-3.5,127,1.1,216,11.1,209c10-6,11.9,13.1,3.8,44c-8.1,32-4.3,66,9.6,83c16.9,21.1,16.9,28.1-1.1,28c-28-0.1-18.4,83.9,19.3,165.1
	c107,235.5,1153.7,312,1575.5,116.8c81.2-38.6,137.5-114.4,113.7-154.5c-6-9,4.1-31,21.2-47.9c20.1-20.9,23.1-31.9,8.1-32
	c-16-0.1-18-8.1-3.9-25c19.1-23.9,52.4-562.8,35.5-579.9c-4-4-71.1,12.7-149.2,37.4S-2609.9,59.2-2705.9,76.8z M-4225.7,482.2
	c4.8,48,7.9,14,8.3-74s-2.5-126-7.6-86C-4229.2,363.2-4229.5,435.2-4225.7,482.2z M-2733.7-3436.4c-0.1,13,8.9,18,20,11.1
	c45.1-27.8,262.9,15.1,249.8,49.1c-10.1,26-7.1,27,13,7.1c30.1-29.9,85.1-33.6,67-3.7c-9.1,13,3.9,16,34,9.1c26-6.9,69-2.7,96,8.4
	l49.9,19.2l-60,3.7c-33,1.9-69,0.7-80-1.3c-11-3-49-5.2-85-5.4c-36,0.8-65-7.3-64.9-17.3s-29.9-18.1-66.9-18.3
	c-36-0.2-71-5.3-78-11.3c-11-11-251.9-32.1-354.9-30.5c-28,0.9-82,0.6-120-0.5c-39-0.2-106,8.5-150.1,19.4
	c-44,10.8-116.1,22.5-160.1,25.3s-89,9.6-100.1,15.6c-11,6-51.1,12.8-89.1,14.6c-37,1.8-79.1,12.7-93.1,23.6
	c-13,10.9-31.1,17.9-41.1,14.8c-9-2-36,5.8-59.1,18.7c-24.1,12.9-48.1,17.8-55,10.8c-7-7-13-2.1-13,10.9
	c-0.1,12-15.1,22.9-32.1,22.9c-23-0.1-29.1,11.9-22.2,41.9c5.9,23,2.7,63-6.4,89c-16.2,40.9,13.6,100.1,41.6,84.2c5-3-2,5-16.1,16.9
	c-19.1,15.9-17.1,27.9,6.8,52s24.8,35.1,5.8,47c-15,8.9-20,6.9-12-6.1c7-11-0.9-32-16.8-45.1c-15.9-13.1-24.9-33.1-18.8-42.1
	c6-10,3.1-18-6.9-18c-20-0.1-83.1-208.4-82.8-274.4c0.2-44,32.2-55.9,310.5-115.7C-3539.7-3450.9-2733.6-3472.4-2733.7-3436.4z
	 M-2531.8-2259.5c17.6,323.1-9.8,1345-35.8,1344.9c-19-0.1-14.4-1071.1,7.1-1410l13-219.9L-2531.8-2259.5z M-3672.3-2160.4
	c15,474.1,10.2,1109.1-9.2,1211c-22.5,114.9-41.2-420.2-37.6-1018.2C-3714.6-2555.6-3689.1-2663.5-3672.3-2160.4z"/>
</svg>
