<?xml version="1.0" encoding="utf-8"?>
<!-- Generator: Adobe Illustrator 19.0.0, SVG Export Plug-In . SVG Version: 6.00 Build 0)  -->
<svg version="1.1" id="Layer_1" xmlns="http://www.w3.org/2000/svg" xmlns:xlink="http://www.w3.org/1999/xlink" x="0px" y="0px"
	 viewBox="-231 247 148 300" style="enable-background:new -231 247 148 300;" xml:space="preserve">
<style type="text/css">
	.st0{fill:#10B639;}
</style>
<path class="st0" d="M-192.4,249.6c-15.2,4.7-26.9,19.3-25.9,32.2c0.5,6.2,0.4,7.1-1.1,7.1c-1.5,0-1.6,2.2-1.6,21.5
	c0,20.9,0.1,21.5,2,21.5c3.9,0,1.9,1.6-4.3,3.5c-5.9,1.8-6.3,2.1-6.6,5.2c-0.3,3.7-0.2,3.8,6.4,1.8c2.7-0.8,5.1-1.5,5.5-1.5
	c0.6,0,1.5,30,2.4,80.5c0.3,16.5,0.8,31,1,32.2c0.3,1.5-0.2,2.5-1.6,3.3c-3,1.6-3.1,41.9-0.1,42.7c1.7,0.4,2,1.9,2.6,12.6
	c0.9,16.8,1.6,17.8,13.5,23.9c3.1,1.5,4.4,2.5,3,2.3l-2.5-0.5l2.6,1.5c4.5,2.6,17,5.5,25.3,6l8.1,0.5l-7-1c-3.9-0.5-7.4-1.1-7.8-1.2
	c-0.4-0.2,9.1-0.3,21.3-0.3s21.6,0.1,21.3,0.3c-0.4,0.1-3.9,0.6-7.8,1.1c-5.9,0.8-6.3,0.9-2.5,1c6.1,0.2,21.6-3.1,27.1-5.7
	c2.5-1.3,3.4-1.9,1.9-1.7c-1.3,0.3,0.2-0.8,3.5-2.5c11.8-5.8,12.8-7.6,13.3-23.7c0.4-11.2,0.6-12.3,2.3-12.3c1.8,0,1.9-1.1,1.9-21.5
	c0-19.3-0.2-21.5-1.7-21.5c-1.4,0-1.5-2.2-1-24.3c0.4-13.4,0.9-39.5,1.3-58c0.3-18.5,0.8-33.8,1.1-33.8s2.9,0.7,6,1.6
	c6.4,1.9,8.3,1,6.5-3c-1-2.3-3.7-3.5-10.5-5.1c-3.2-0.7-3.7-2.5-0.8-2.5c1.8,0,2-0.8,2.2-8.8c0.5-26.5,0.3-33.5-1.1-34.2
	c-1-0.6-1.3-2.8-1.3-8.2c0.4-12.5-11.9-27-26.7-31.4C-128.8,247.3-185.4,247.5-192.4,249.6z M-142.8,249.8c-7.9,0.1-20.6,0.1-28.5,0
	c-7.9-0.2-1.4-0.3,14.3-0.3C-141.3,249.4-134.9,249.6-142.8,249.8z M-193.1,252.8c-0.6,1-3.4,3.1-6.3,4.6c-2.8,1.6-6.7,4-8.6,5.4
	c-2.6,1.8-3.1,2-2,0.6C-204.9,256.9-189.6,247.3-193.1,252.8z M-144.3,251.8c-7,0.1-18.5,0.1-25.5,0c-7-0.2-1.3-0.3,12.8-0.3
	C-142.9,251.4-137.3,251.6-144.3,251.8z M-116,253.1c5.3,3.1,10.9,7.8,12,9.9c1,1.9-10-4.8-15.5-9.4
	C-123.3,250.4-120.9,250.1-116,253.1z M-126.7,254.6c1.1,0.4,1.3,1.4,0.7,3.9c-0.4,1.9-0.8,8.4-0.9,14.7c0,6.2-0.4,16.4-0.8,22.5
	c-0.6,11.7,0.2,21.2,1.7,19.7c1.5-1.5,5.3-41.2,4.8-50.1l-0.5-8.3l2.6,1.6c5.4,3.5,7,4.9,7,6.1c0,0.8,0.5,1,1.3,0.6
	c0.7-0.4,1-0.4,0.6,0c-0.4,0.5-0.1,2.1,0.8,3.7c1.1,2.1,1.4,7.3,1.5,22.1c0,10.6,0.4,21.8,0.9,24.8c1,7.1,1.6,6.9-10.8,3.7
	c-21.3-5.5-43-6.8-61-3.6c-8.6,1.5-8.4,1.6-7.1-3.5c0.8-2.9,0.7-11.5-0.3-30.5c-1-18.4-1.1-26.8-0.4-27.3
	C-185.4,253.9-128.9,253.7-126.7,254.6z M-192.2,261.3c-1.3,5.3,0.9,35.4,3.8,52.9l0.6,3.6l-6.8,1.8c-12.9,3.4-13.5,3.3-10.5-2.1
	c0.8-1.5,1.2-8.9,1.2-23.9c0-24.5,0.6-27.3,7.6-33.4C-191.8,256-191.1,256.2-192.2,261.3z M-215.3,313l-0.1,20.5l-0.7-14.5
	c-1-20.3-0.9-40.6,0.1-32.5C-215.6,289.8-215.3,301.7-215.3,313z M-97.8,324.5l-0.9,9l-0.1-12.1c-0.1-6.6,0.2-18.4,0.6-26l0.8-13.9
	l0.3,17C-97.1,307.9-97.3,319.5-97.8,324.5z M-218.1,309.8c-0.1,4-0.3,4.4-1.1,2.5c-0.9-2-0.4-7.3,0.7-7.3
	C-218.2,305-218.1,307.1-218.1,309.8z M-94.9,313.4c-0.8,0.8-1.1-0.1-1.1-3c0-5.3,1.4-6.7,1.8-1.8C-94,310.6-94.3,312.8-94.9,313.4z
	 M-208.8,324.8c0.6,0.7,0.9,1.5,0.6,1.8c-0.3,0.3,0.3,4,1.3,8.2c1.8,7.5,1.8,7.6-0.1,5.3c-2.9-3.9-4-9.1-3.9-17.6
	c0.2-5.1,0.4-6.4,0.6-3.4C-210.1,321.4-209.4,324-208.8,324.8z M-120,322.4c6.3,1.5,11.6,2.6,11.8,2.6c1,0-0.2,6.1-2.3,12.7
	c-2.9,9.1-9.8,20.8-11.9,20c-7.1-2.7-50.4-3.1-64.6-0.6c-6.4,1.1-6.6,1-12.5-10.1c-3.3-6.3-7.4-20.3-6.2-21.5
	c0.8-0.8,12.1-3.4,21.7-4.9C-169.6,318.1-134.4,319.1-120,322.4z M-104,329c-0.5,3.1-0.4,4.7,0.3,5.3c0.8,0.4,0.6,0.7-0.6,0.8
	c-0.9,0-1.8,0.6-1.8,1.4c0,0.8-0.4,1.7-0.9,2c-0.5,0.3-0.3-2.2,0.5-5.5c0.8-3.4,1.2-6.5,0.9-6.9c-0.4-0.6,1.5-2.1,2.2-1.6
	C-103.3,324.4-103.5,326.5-104,329z M-212,335.5c0,0.8,1.5,3.1,3.4,5.2c4.4,4.9,5.9,8.1,8.3,17.3c2.4,9.8,2.9,90.6,0.5,97.4
	c-1.4,4.1-6.6,10.6-8.4,10.6c-0.6,0,0.1-1.3,1.5-2.8c6.5-7,6.3-5.3,6.3-54.3c0-51.4-0.9-57.6-9.1-66.5c-2.3-2.5-5.2-10.1-3.3-9
	C-212.4,333.9-212,334.8-212,335.5z M-101,337.1c-0.5,2-1.9,4.4-3.1,5.5c-7.9,7.1-9.2,15.1-9.7,63.6c-0.4,46.4-0.2,49.5,5.8,55.8
	c1.7,1.8,2.8,3.5,2.4,3.9c-1.2,1.1-7.1-6.7-8.4-10.9c-0.8-2.9-1.2-16.2-1.3-46.3c0-50.8,0.7-56,8.9-66.4c1.8-2.3,3.8-5.4,4.3-6.9
	C-100.5,331.6-99.8,332.9-101,337.1z M-206.1,352.4c3.6,9.6,6.2,50.6,3.2,50.6c-4.3,0-5.9-2.3-5.8-7.9c0.1-8.7-1.1-42.1-1.9-46.6
	C-211.5,342.9-208.8,345.3-206.1,352.4z M-103.9,350.1c-0.5,2.4-1.2,14.9-1.5,27.8c-0.5,25-0.4,24.7-5.5,25
	c-1.9,0.1-0.9-35.8,1.4-44.9C-107,348-101.8,340.5-103.9,350.1z M-214.3,376.8c-0.2,4.3-0.4,0.8-0.4-7.8c0-8.5,0.2-12,0.4-7.8
	S-214.1,372.5-214.3,376.8z M-125,359.6l4.5,0.6l-0.3,42.4c-0.2,25.2,0.1,43.8,0.6,45.9c0.9,3.1,0.8,3.6-1.7,5.4
	c-9.3,6.6-54.7,7.5-67.1,1.3l-3.4-1.7l0.1-46.3c0.1-25.5,0.3-46.6,0.6-46.8C-189.7,358.4-138.3,357.8-125,359.6z M-99.3,382.2
	c-0.2,3.4-0.3,0.9-0.3-5.7s0.2-9.5,0.3-6.3C-99,373.4-99,378.8-99.3,382.2z M-100,395.2c0,0.9-0.4,1.9-1,2.3c-0.6,0.4-1-0.9-1-3.2
	c0.1-2.8,0.3-3.4,1-2.3C-100.4,392.8-100,394.3-100,395.2z M-203.6,406.6c1.4,0.5,1.6,3,1.6,18V442l-2.6,0.6c-3.4,0.9-3.2,2-4-18.4
	C-209.4,404.4-209.4,404.4-203.6,406.6z M-105.4,408.8c-0.3,1.5-0.7,9.9-0.8,18.5c-0.3,16.1-0.4,16.6-4.2,15.1
	c-2.1-0.8-2.4-34.9-0.3-35.8C-106.9,405.1-104.8,406-105.4,408.8z M-213.3,422.3c-0.3,2.3-0.4,0.2-0.4-4.8s0.2-6.9,0.4-4.2
	C-213.1,415.9-213.1,420-213.3,422.3z M-100.3,429.8c-0.3,2-0.4,0.4-0.4-3.8c0-4.1,0.2-5.8,0.4-3.8
	C-100,424.3-100,427.7-100.3,429.8z M-210,438.5c0,1.9-0.4,3.5-1,3.5s-1-1.6-1-3.5c0-2,0.4-3.5,1-3.5S-210,436.5-210,438.5z
	 M-203.5,455.6c-2.9,7.6-4.5,7.6-4.5,0.1c0-6,0.3-6.8,2.8-8.8l2.8-2.2l0.4,3.3C-202,449.9-202.6,453.3-203.5,455.6z M-108.4,446.6
	c2.2,1.4,2.4,2.3,2.4,8.1c0,6.5,0,6.5-2,4.8c-2.2-2-4-7.4-4-11.8C-112,444.5-111.8,444.5-108.4,446.6z M-211.3,504.5l-0.1,17
	l-0.7-14.5c-0.4-8-0.6-24-0.6-35.5l0.1-21l0.7,18.5C-211.6,479.1-211.3,495.1-211.3,504.5z M-192.2,457c10.6,7.7,56.6,8,69.9,0.6
	c4.8-2.7,4.8-2.8,6.8,5.1c2.4,9.3,2.1,20.5-0.8,23.1c-12.3,11.5-69.3,11.5-81.5,0c-3.4-3.1-3-18.5,0.6-28
	C-195.9,454.5-195.7,454.5-192.2,457z M-102,500.8c-0.8,1.3-1-0.8-0.5-7.7c0.3-5.2,0.6-15.8,0.8-23.5c0.2-10.3,0.3-8.2,0.5,7.7
	C-101,491.8-101.3,499.7-102,500.8z M-97.9,481.4c-0.7,2.4-0.9,1-0.9-5.9l0-9l0.8,5.9C-97.4,475.9-97.4,479.6-97.9,481.4z
	 M-214.8,481.5c-1,3.1-1.9-2.6-1.3-8.9l0.4-5.1l0.8,6C-214.4,476.8-214.4,480.4-214.8,481.5z M-178.1,497.6
	c19.5,3.7,47.1,1.1,64.3-6.1c1.5-0.6,1.7,0.4,2,10.3c0.1,6.4-0.1,10.8-0.6,10.5c-0.5-0.3-0.6,0.7-0.2,2.2c0.4,1.6,0.2,3.3-0.5,4.1
	c-0.8,1.1-0.8,1.4,0.1,1.4c1.4,0,0.9,4.2-1,8.3c-5.4,11.8-57.8,15.3-78.8,5.5c-4-2-6.8-5.8-5.6-7.8c0.3-0.5-0.2-1.5-1.1-2.4
	c-1-1-1.1-1.6-0.4-1.6c0.8,0,0.9-0.4,0.2-1.3c-0.9-1.2-2.5-28.1-1.6-29c0.2-0.2,3.5,0.6,7.4,1.9
	C-190.1,494.9-182.9,496.7-178.1,497.6z M-102.3,518.2c-0.3,2.4-0.4,0.7-0.4-3.7c0-4.4,0.2-6.3,0.4-4.3
	C-102,512.3-102,515.8-102.3,518.2z M-176.5,321.1c0,0,2.1-0.2,2.1-0.3c0-0.1-4.8,0.1-8.5,0.6c-0.9,0.1-1.7,0.3-2.8,0.5
	c-1,0.2-1.3,0.4-2.3,0.6c-1.1,0.3-1.8,0.3-2.6,0.5c-0.7,0.1-1.9,0.4-4.4,0.9c-1.5,0.3-3.5,0.7-5.8,1.3l-2.5,1
	c0.2,0.9,0.3,1.9,0.5,2.8c0.4,1.5,1.1,3.8,2.3,6.6c1.4,3.4,1.8,3.3,3.3,6.9c1,2.4,1.5,4.2,3.1,7.6c1,2.1,1.3,2.7,2,3.3
	c2,1.7,4.7,1.7,6.1,1.6c6.4-0.2,11-1.1,14.6-1.5c3.3-0.4,6.6-0.4,13.1-0.5c4,0,7.1,0,11.3,0.1c4,0.1,5.8,0.2,6.9,0.3
	c2.1,0.1,2.1,0.2,6.6,0.5c5.4,0.4,5.3,0.3,6.5,0.5c4.1,0.6,4.4,1.2,5.5,0.8c1.4-0.6,2.4-2.9,4.3-7.5c0.6-1.4,1-2.5,1.5-3.9
	c0.4-1.1,0.8-2.2,1.9-5.3c2-5.7,2.5-7.4,2.2-9.8c-0.1-0.5-0.1-0.8-0.2-1c-1.4-2.8-5.4-3.4-15.3-4.8c-10.7-1.5-10.2-1.6-13-1.8
	c-4.1-0.4-7.2-0.5-12.9-0.6c-5-0.1-7.5-0.2-10.8-0.1C-170.8,320.4-176.5,321.2-176.5,321.1z M-186.4,380.8
	c-0.9,16.1,0.2,67.3,1.5,67.3c1,0,1-53.5,0-70.5l-0.6-11L-186.4,380.8z M-129.4,386c-0.8,23.7-0.8,55.4,0.2,60.5
	c1.1,5.8,2.1-21,2.1-50.9C-127.2,366.2-128.4,360.8-129.4,386z M-72.3,406.7 M-128,447.6h-57.7v-80.1h57.7V447.6z M-186.5,462.8
	c2.2,0.9,5,1.9,8.5,2.8c1.4,0.3,6.1,1.5,12.5,2c4.2,0.3,7.2,0.2,13.3,0c5.9-0.2,9.4-0.6,10.5-0.8c1.9-0.2,4.4-0.5,7.8-1.3
	c3-0.6,5-1.1,7.5-2c4.9-1.8,6-3.4,7.3-2.8c0.6,0.3,0.9,1,1.5,9.5c0.2,2.8,0.2,4.1,0.3,5.8c0,4.1,0,6.1-0.8,7.3
	c-0.8,1.2-1.9,1.6-7.3,3c-4.5,1.2-6.7,1.8-9.3,2.3c-3.1,0.6-6.6,1.3-11.3,1.8c-4.7,0.5-8.2,0.5-11.5,0.5c-4.3,0-7.7,0-12.3-0.5
	c-0.7-0.1-3.4-0.6-8.8-1.5c-7-1.2-8.3-1.5-10.3-2.3c-3.2-1.2-6-2.3-7.3-5c-0.5-1-0.6-2.3-0.8-4.8c-0.2-2.3-0.1-4.1,0-5.5
	c0.1-1.7,0.2-3.7,0.8-6.3c0.3-1.5,0.8-3.5,1.8-5.8 M-188.8,499.3c1.9,0.5,4.8,1.2,8.3,2c4.1,0.9,6.1,1.4,8.3,1.8
	c3.2,0.5,5.5,0.6,9.6,0.8c4.6,0.2,6.9,0.4,9.9,0.2c2.8-0.2,2.6-0.4,8.3-0.9c2.7-0.2,3.7-0.3,5.8-0.6c1-0.2,2.4-0.5,5.3-1.1
	c3-0.7,4.5-1,5.4-1.3c2.3-0.6,4-1.2,6.3-2c4.9-1.7,6.1-2.4,6.9-1.8c0.5,0.5,0.2,1.1,0,4.4c-0.1,1-0.1,2.7-0.1,6c0,1.9,0,2.9,0,4.1
	c0,1.2,0.1,1.6,0.1,3.3c0,0.6,0,1.7,0,3.1c0,1-0.1,1.6-0.1,2.1c-0.1,0.5-0.1,1-0.3,1.6c-0.3,1.8-0.5,2.7-0.9,3.6
	c-0.1,0.2-0.8,1.8-2.1,3.3c-0.9,0.9-1.9,1.6-6.4,3c-2.7,0.9-4.9,1.4-5.8,1.6c-3.8,0.9-5.7,1.4-8.3,1.9c-3.7,0.7-6.5,0.9-10,1.1
	c-1.2,0.1-4.4,0.3-8.8,0.4c-2.7,0-6.4,0.1-11.1-0.3c-3-0.2-5.9-0.4-9.6-1.1c-3.5-0.7-5.8-1.4-7.8-2c-3.9-1.3-5.1-2-5.8-2.5
	c-1-0.7-2.8-2-3.8-4.3c-0.7-1.6-0.6-2.7-0.8-5.3c-0.1-2.5-0.3-1.3-1-7.8c-0.4-3.1-0.7-6.5-1-10.8c-0.2-2.6-0.2-4.7-0.3-6.3
	 M-129.5,258.5c-0.2,2.2-0.5,5.6-0.8,9.7c-0.4,4.2-0.5,5.1-0.8,8.7c-0.6,6.8-1,10.3-1,11.8c-0.1,3.8-0.7,7.5-0.8,11.3
	c0,0.9-0.1,2.3-1,3.7c-1.4,2.1-3.9,2.7-5.3,3c-5.5,1.1-9.6,0.7-15.8,0.7c-4.6,0-9.2-0.4-13.8-0.3c-1.6,0-3.9,0.1-6-1.3
	c-1.9-1.3-2.7-3.5-3.2-4.8c-0.7-2-0.8-3.4-1-6.3c-0.4-5.1-0.8-7.7-0.8-8.7c-0.3-3.1-0.4-4.7-0.5-6.7c-0.4-6.6-0.4-12-0.3-12
	c0,0,0.2,6.3,0.2,6.3c0,0-0.3-5.7-0.7-15.8"/>
</svg>
