<?xml version="1.0" encoding="utf-8"?>
<!-- Generator: Adobe Illustrator 19.0.0, SVG Export Plug-In . SVG Version: 6.00 Build 0)  -->
<svg version="1.1"
	 id="svg2" xmlns:inkscape="http://www.inkscape.org/namespaces/inkscape" xmlns:cc="http://creativecommons.org/ns#" xmlns:ns1="http://sozi.baierouge.fr" xmlns:dc="http://purl.org/dc/elements/1.1/" xmlns:sodipodi="http://sodipodi.sourceforge.net/DTD/sodipodi-0.dtd" xmlns:rdf="http://www.w3.org/1999/02/22-rdf-syntax-ns#" inkscape:version="0.91 r13725"
	 xmlns="http://www.w3.org/2000/svg" xmlns:xlink="http://www.w3.org/1999/xlink" x="0px" y="0px" viewBox="416 -83 476 960"
	 style="enable-background:new 416 -83 476 960;" xml:space="preserve">
<style type="text/css">
	.st0{fill-opacity:0.9961;stroke:#191919;stroke-width:14;}
	.st1{fill:#17B900;fill-opacity:0.9961;}
	.st2{opacity:0.9;fill:#262626;fill-opacity:0.9961;enable-background:new    ;}
	.st3{opacity:0.5;fill-opacity:0.9961;enable-background:new    ;}
	.st4{fill:#212121;stroke:#191919;stroke-width:5;}
	.st5{opacity:0.5;fill:none;stroke:#292929;stroke-width:6;stroke-linecap:round;stroke-linejoin:round;enable-background:new    ;}
	.st6{fill:url(#path3757_1_);}
	.st7{fill:url(#path3787_1_);}
	.st8{fill:url(#path3752_1_);}
	.st9{fill:url(#path3735_1_);}
	.st10{fill:url(#path3783_1_);}
	.st11{fill:url(#path3799_1_);}
	.st12{fill:url(#path3803_1_);}
	.st13{fill:url(#rect3861_1_);}
	.st14{fill:url(#path3864_1_);}
	.st15{opacity:0.9;fill:#191919;enable-background:new    ;}
	.st16{opacity:0.9;fill:#262626;fill-opacity:0.9961;stroke:#191919;stroke-width:5;enable-background:new    ;}
	.st17{fill:url(#path4165_1_);}
	.st18{fill:url(#path4167_1_);}
	.st19{fill:url(#path4169_1_);}
	.st20{fill:url(#path4171_1_);}
	.st21{fill:url(#path4173_1_);}
	.st22{fill:url(#path4175_1_);}
	.st23{fill:url(#path4177_1_);}
	.st24{fill:url(#path4179_1_);}
	.st25{fill:url(#path4181_1_);}
</style>
<title  id="title3968">Red Car - Top View</title>
<g id="layer1" transform="translate(-52.937,-486.69)">
	<g id="g3890">
		<path id="path3855" class="st0" d="M475.6,807.1c0,1.5,0.3,4.7,1,6.5l1.5,3.5l35.9-8.8l0.8,124.8c0,2.4,0,4.9,0,7.3
			c0,4.9-0.1,9.9-0.2,14.8c-0.1,7.3-0.3,14.7-0.6,22.1c0,0.4,0,0.8-0.1,1.2c-0.6,14.9-1.4,30-2.2,45c-1.2,20.3-2.5,40.5-3.6,60.1
			c-0.8,14.5-1.5,28.7-1.8,42.4c-0.2,9.4-0.4,18.5-0.3,27.3c0,4.3,0.1,8.6,0.3,12.7c0.1,4.2,0.4,8.4,0.7,12.7
			c0.2,2.1,0.3,4.3,0.5,6.4c0.6,6.5,1.4,13,2.3,19.6c0,0,0,0,0,0c0.6,4.4,1.3,8.7,2,13.1c0.7,4.3,1.4,8.7,2.2,12.9
			c0.8,4.3,1.6,8.5,2.4,12.6c0,0,0,0,0,0c0.4,2.1,0.8,4.1,1.2,6.1c1.3,6.1,2.6,11.9,3.9,17.5c0,0,0,0,0,0c0.9,3.7,1.7,7.3,2.5,10.7
			c1.7,6.9,3.3,13.1,4.7,18.5c2.2,8.1,4,14.4,5.1,18.1c0.7,2.5,1.1,3.8,1.1,3.8l3.8,13.7c0.3,0.9,0.7,1.8,1.3,2.6
			c0.2,0.3,0.4,0.6,0.7,0.8c1,1.1,2.3,2.1,3.9,3.1c0,0,0,0,0,0c0.8,0.5,1.6,1,2.6,1.5c0,0,0,0,0,0c0.9,0.5,1.9,0.9,3,1.4
			c0,0,0,0,0,0c8.5,3.6,21.2,6.5,36.3,8.8c0,0,0,0,0,0c0.2,0,0.5,0.1,0.7,0.1c3.3,0.5,6.8,1,10.4,1.4c0.2,0,0.5,0.1,0.7,0.1
			c4,0.5,8.2,0.9,12.5,1.3c0,0,0,0,0,0c2.1,0.2,4.3,0.4,6.5,0.6c0,0,0,0,0,0c2.2,0.2,4.4,0.4,6.6,0.5c0,0,0,0,0,0
			c4.4,0.3,8.9,0.6,13.5,0.9c0,0,0,0,0,0c13.7,0.8,27.8,1.3,41.6,1.6c0,0,0,0,0,0c9.2,0.2,18.2,0.2,26.9,0.2c1,0,2,0,2.9,0
			c1,0,2,0,2.9,0c8.7,0,17.7-0.2,26.9-0.4c0,0,0,0,0,0c13.8-0.4,27.9-1,41.6-2c0,0,0,0,0,0c4.6-0.3,9.1-0.7,13.5-1c0,0,0,0,0,0
			c2.2-0.2,4.4-0.4,6.6-0.6c0,0,0,0,0,0c2.2-0.2,4.3-0.4,6.5-0.7c0,0,0,0,0,0c4.3-0.4,8.4-0.9,12.5-1.4c0.2,0,0.5-0.1,0.7-0.1
			c3.5-0.5,7-1,10.3-1.5c0.2,0,0.5-0.1,0.7-0.1c0,0,0,0,0,0c15.1-2.4,27.7-5.4,36.2-9.1c0,0,0,0,0,0c1.1-0.5,2-0.9,3-1.4
			c0,0,0,0,0,0c0.9-0.5,1.8-1,2.6-1.5c0,0,0,0,0,0c1.6-1,2.9-2.1,3.8-3.2c0.3-0.3,0.5-0.6,0.7-0.8c0.6-0.8,1.1-1.7,1.3-2.6l3.7-13.7
			c0,0,0.4-1.3,1.1-3.8c1.1-3.7,2.8-10,4.9-18.1c1.4-5.4,3-11.7,4.6-18.6c0.8-3.4,1.6-7,2.5-10.7c0,0,0,0,0,0
			c1.2-5.6,2.5-11.4,3.7-17.5c0.4-2,0.8-4,1.2-6.1c0,0,0,0,0,0c0.8-4.1,1.6-8.3,2.3-12.6c0.7-4.3,1.4-8.6,2.1-12.9
			c0.7-4.3,1.3-8.7,1.8-13.1c0,0,0,0,0,0c0.8-6.6,1.6-13.1,2.1-19.6c0.2-2.2,0.3-4.3,0.5-6.4c0.3-4.3,0.5-8.5,0.6-12.7
			s0.2-8.4,0.2-12.7c0-8.8-0.2-17.9-0.5-27.2c-0.5-13.6-1.3-27.8-2.2-42.4c-1.3-19.6-2.8-39.8-4.1-60.1c-1-15-1.9-30.1-2.6-45
			c0-0.4,0-0.8-0.1-1.2c-0.3-7.4-0.6-14.8-0.8-22.1c-0.1-5-0.2-9.9-0.3-14.8c0-2.5-0.1-4.9-0.1-7.3l-0.3-124.8l36,8.5l1.5-3.5
			c0.6-1.8,0.9-5,0.9-6.5c0-0.8-0.1-1.8-0.3-2.7c-0.1-0.3-0.1-0.6-0.2-0.9c-0.1-0.3-0.2-0.6-0.3-0.9c-0.2-0.6-0.4-1.3-0.7-1.9
			c-0.8-1.8-1.9-3.5-3.3-4.8c0,0,0,0,0,0c-0.7-0.6-1.5-1.1-2.3-1.5l-31.4-12l-0.2-109.9c0.4-0.7,0.7-1.5,1.1-2.2
			c1.4-3,2.6-5.9,3.6-8.9c0.5-1.5,1-2.9,1.4-4.4c1.5-5.1,2.5-10.2,3.2-15.4c0.4-2.9,0.7-5.9,0.9-8.9c0.1-1.5,0.2-3,0.2-4.6
			c0.1-3.1,0.2-6.1,0.2-9.3c0-6.3-0.1-13-0.1-20c0-10.4-0.6-20.3-1.7-29.8c-0.4-3.8-0.9-7.5-1.5-11.1c-1.2-7.3-2.7-14.2-4.5-20.9
			c-0.4-1.7-0.9-3.3-1.4-5c-1.4-4.9-3.1-9.6-4.8-14.2c-0.6-1.5-1.2-3-1.8-4.5c-1.3-3-2.6-5.9-4-8.7c-0.7-1.4-1.4-2.8-2.1-4.2
			c-1.5-2.8-3-5.5-4.6-8.1c-0.8-1.3-1.6-2.6-2.5-3.9c-4.1-6.4-8.7-12.3-13.6-17.8c-3.9-4.4-8.1-8.6-12.5-12.4c0,0,0,0,0,0
			c-1.1-1-2.2-1.9-3.3-2.9c0,0,0,0,0,0c-1.1-0.9-2.3-1.9-3.4-2.8c0,0,0,0,0,0c-3.5-2.7-7-5.3-10.8-7.7c0,0,0,0,0,0
			c-1.2-0.8-2.5-1.6-3.7-2.4c0,0,0,0,0,0c-3.8-2.3-7.7-4.5-11.7-6.6c0,0,0,0,0,0c-1.3-0.7-2.7-1.3-4-2c0,0,0,0,0,0
			c-1.4-0.6-2.7-1.3-4.1-1.9c0,0,0,0,0,0c-2.8-1.2-5.6-2.4-8.4-3.5c0,0,0,0,0,0c-1.4-0.6-2.9-1.1-4.3-1.6c0,0,0,0,0,0
			c-1.4-0.5-2.9-1-4.4-1.5c-1.5-0.5-3-1-4.4-1.4c0,0,0,0,0,0c-1.5-0.5-3-0.9-4.5-1.4c0,0,0,0,0,0c-1.5-0.4-3-0.9-4.6-1.3
			c0,0,0,0,0,0c-4.6-1.2-9.3-2.3-14.1-3.3l0,0c-1.6-0.3-3.2-0.6-4.8-0.9l0,0c-11.3-2-23.1-3.4-35.2-4c0,0,0,0,0,0
			c-1.7-0.1-3.5-0.2-5.2-0.2c0,0,0,0,0,0c-3.5-0.1-7-0.2-10.6-0.2c0,0,0,0,0,0c-1.8,0-3.6,0-5.4,0c-0.6,0-1.3,0-1.9,0
			c-0.6,0-1.3,0-1.9,0c-1.8,0-3.6,0-5.4,0c0,0,0,0,0,0c-3.6,0-7.1,0.2-10.6,0.3c0,0,0,0,0,0c-1.7,0.1-3.5,0.2-5.2,0.3c0,0,0,0,0,0
			c-12.2,0.7-23.9,2.2-35.2,4.3l0,0c-1.6,0.3-3.2,0.6-4.8,0.9l0,0c-4.8,1-9.5,2.1-14.1,3.4c0,0,0,0,0,0c-1.5,0.4-3,0.9-4.6,1.3
			c0,0,0,0,0,0c-1.5,0.4-3,0.9-4.5,1.4c0,0,0,0,0,0c-1.5,0.5-3,1-4.4,1.5c-1.5,0.5-2.9,1-4.4,1.6c0,0,0,0,0,0
			c-1.4,0.5-2.9,1.1-4.3,1.6c0,0,0,0,0,0c-2.8,1.1-5.6,2.3-8.4,3.6c0,0,0,0,0,0c-1.4,0.6-2.7,1.3-4.1,2c0,0,0,0,0,0
			c-1.4,0.7-2.7,1.3-4,2c0,0,0,0,0,0c-4,2.1-7.9,4.3-11.6,6.7c0,0,0,0,0,0c-1.3,0.8-2.5,1.6-3.7,2.4c0,0,0,0,0,0
			c-3.7,2.5-7.2,5.1-10.7,7.8c0,0,0,0,0,0c-1.1,0.9-2.3,1.9-3.4,2.8c0,0,0,0,0,0c-1.1,0.9-2.2,1.9-3.3,2.9c0,0,0,0,0,0
			c-4.4,3.9-8.5,8.1-12.4,12.6c-4.9,5.6-9.4,11.6-13.5,18c-0.8,1.3-1.6,2.6-2.4,3.9c-1.6,2.6-3.1,5.3-4.5,8.1
			c-0.7,1.4-1.4,2.8-2.1,4.2c-1.4,2.8-2.7,5.8-3.9,8.7c-0.6,1.5-1.2,3-1.8,4.5c-1.7,4.6-3.3,9.3-4.7,14.2c-0.5,1.6-0.9,3.3-1.4,5
			c-1.7,6.7-3.2,13.7-4.3,20.9c-0.6,3.6-1,7.3-1.4,11.1c-1,9.5-1.5,19.4-1.4,29.8c0,7,0,13.7,0.1,20c0.1,3.2,0.1,6.3,0.3,9.3
			c0.1,1.5,0.2,3.1,0.3,4.6c0.2,3,0.5,6,0.9,8.9c0.7,5.2,1.8,10.2,3.3,15.3c0.4,1.5,0.9,2.9,1.4,4.4c1,2.9,2.3,5.9,3.7,8.8
			c0.4,0.7,0.7,1.5,1.1,2.2l0.7,109.9l-31.3,12.3c-0.8,0.4-1.6,0.9-2.3,1.5c0,0,0,0,0,0c-1.4,1.3-2.5,3-3.3,4.8
			c-0.3,0.6-0.5,1.2-0.7,1.9c-0.1,0.3-0.2,0.6-0.2,0.9c-0.1,0.3-0.2,0.6-0.2,0.9C475.7,805.3,475.6,806.2,475.6,807.1L475.6,807.1z"
			/>
		<path id="path2853" class="st1" d="M475.6,807.1c0,1.5,0.3,4.7,1,6.5l1.5,3.5l35.8-8.8l0.8,124.8c0.5,78-10.8,166.6-8.5,233
			c2.3,66.4,28.7,152,28.7,152l3.8,13.7c5.4,19.2,97.5,25.3,166.9,25c1.1,0,2.3,0,3.4,0c1.1,0,2.3,0,3.4,0
			c69.4-0.3,161.5-7.2,166.7-26.4l3.7-13.7c0,0,25.6-85.8,27.3-152.2c1.7-66.4-10.3-154.9-10.5-232.9l-0.3-124.8l35.9,8.5l1.5-3.5
			c0.6-1.8,0.9-5,0.9-6.5c0-0.8-0.1-1.8-0.3-2.7c-0.1-0.3-0.1-0.6-0.2-0.9c-0.1-0.3-0.2-0.6-0.3-0.9c-0.2-0.6-0.4-1.3-0.7-1.9
			c-0.8-1.8-1.9-3.5-3.3-4.8c0,0,0,0,0,0c-0.7-0.6-1.5-1.1-2.3-1.5l-31.3-12L899,670.5c11.8-24,10.5-45.6,10.4-73.6
			c-0.6-133.2-87.4-187.3-202.2-186.1c-0.8,0-1.6,0-2.3,0c-0.8,0-1.6,0-2.3,0c-114.8-0.1-201.1,54.6-200.6,187.9
			c0.1,28.1-1,49.7,11,73.5l0.7,109.9l-31.2,12.3c-0.8,0.4-1.6,0.9-2.3,1.5c0,0,0,0,0,0c-1.4,1.3-2.5,3-3.3,4.8
			c-0.3,0.6-0.5,1.2-0.7,1.9c-0.1,0.3-0.2,0.6-0.2,0.9c-0.1,0.3-0.2,0.6-0.2,0.9C475.7,805.3,475.6,806.2,475.6,807.1L475.6,807.1z"
			/>
		<path id="path3643" class="st2" d="M838.1,1015.7c0.1,33.4,2.1,65.3,5.5,94.8c48.6-25.9,29.8-98.1,30.6-205.7
			c0.4-49.7,1.5-89.6,1.9-121.5C852.9,830.5,837.6,917,838.1,1015.7L838.1,1015.7z"/>
		<path id="path3658" class="st3" d="M838.1,1015.7c0,3.2,0.1,6.4,0.1,9.6c16.2-0.9,30.2-6.6,38.8-14.8c-0.1-4.7-0.2-9.5-0.4-14.4
			c-8.2,8.6-22.2,14.7-38.5,15.9C838,1013.2,838.1,1014.5,838.1,1015.7L838.1,1015.7z"/>
		<path id="path3707" class="st4" d="M807.8,427.2l0.6,5.1c2.6,21.5,26.1,37.6,54.7,39l7.1,0.3l-4.9-5.2
			c-14.7-15.8-32.6-28.2-52.9-37.2L807.8,427.2L807.8,427.2z"/>
		<path id="path3715" class="st5" d="M819.7,632.7c0,0-22.9-79.6-32.4-105.2c-9.9-26.8-39.6-98.7-39.6-98.7s42.5,8.6,58,30.2
			c55.2,77,54.9,232.5,54.9,232.5"/>
		
			<linearGradient id="path3757_1_" gradientUnits="userSpaceOnUse" x1="1095.7438" y1="273.7176" x2="1072.5737" y2="281.3376" gradientTransform="matrix(-4.311114e-003 -1 -1 4.311114e-003 1106.5236 1633.5314)">
			<stop  offset="0" style="stop-color:#1A1A1A"/>
			<stop  offset="1" style="stop-color:#000000;stop-opacity:0"/>
		</linearGradient>
		<path id="path3757" class="st6" d="M798.6,546.3l2.4,4.4c1.2-1,2.4-1.8,3.8-2.4c11.7-4.8,29.3,10.6,35.9,26.7
			c0.2,0.5,0.8,1.8,1.7,3.4l-3.9-13.6c-8.5-17.3-23.2-27.4-34.1-22.9C802.1,542.9,800.2,544.3,798.6,546.3L798.6,546.3z"/>
		
			<linearGradient id="path3787_1_" gradientUnits="userSpaceOnUse" x1="1114.8813" y1="586.6475" x2="1103.1213" y2="586.5875" gradientTransform="matrix(-4.311114e-003 -1 -1 4.311114e-003 1407.026 1619.1063)">
			<stop  offset="0" style="stop-color:#1A1A1A"/>
			<stop  offset="1" style="stop-color:#000000;stop-opacity:0"/>
		</linearGradient>
		<path id="path3787" class="st7" d="M794.1,537.7l2.4,4.4c1.2-1,2.4-1.8,3.8-2.4c11.7-4.8,29.3,10.6,35.9,26.7
			c0.2,0.5,0.8,1.8,1.7,3.4l-3.9-13.6c-8.5-17.3-23.2-27.4-34.1-22.9C797.6,534.3,795.7,535.8,794.1,537.7L794.1,537.7z"/>
		
			<linearGradient id="path3752_1_" gradientUnits="userSpaceOnUse" x1="1106.5616" y1="583.0333" x2="1042.4817" y2="588.6233" gradientTransform="matrix(-4.311114e-003 -1 -1 4.311114e-003 1405.5793 1612.9254)">
			<stop  offset="0" style="stop-color:#1A1A1A"/>
			<stop  offset="1" style="stop-color:#000000;stop-opacity:0"/>
		</linearGradient>
		<path id="path3752" class="st8" d="M792.7,531.5l2.4,4.4c1.2-1,2.4-1.8,3.8-2.4c11.7-4.8,29.3,10.6,35.9,26.7
			c0.2,0.5,0.8,1.8,1.7,3.4l-3.9-13.6c-8.5-17.3-23.2-27.4-34.1-22.9C796.2,528.1,794.3,529.6,792.7,531.5L792.7,531.5z"/>
		
			<linearGradient id="path3735_1_" gradientUnits="userSpaceOnUse" x1="1113.3423" y1="560.5837" x2="1099.8823" y2="567.6137" gradientTransform="matrix(-4.311114e-003 -1 -1 4.311114e-003 1407.026 1619.1063)">
			<stop  offset="0" style="stop-color:#1A1A1A"/>
			<stop  offset="1" style="stop-color:#000000;stop-opacity:0"/>
		</linearGradient>
		<path id="path3735" class="st9" d="M788.3,514.6l1.9,6.2c1.7-1,3.5-1.7,5.5-2.1c16-3.2,34.4,20.8,38.7,42.9
			c0.7,3.4,8.7,28.8,8.9,32.1l4.1,0l-12.3-41.4c-5.6-26.3-22.6-44.9-38.4-41.7C793.6,511.2,790.8,512.6,788.3,514.6L788.3,514.6z"/>
		
			<linearGradient id="path3783_1_" gradientUnits="userSpaceOnUse" x1="1091.3439" y1="557.3359" x2="1046.6238" y2="608.3059" gradientTransform="matrix(-4.311114e-003 -1 -1 4.311114e-003 1407.026 1619.1063)">
			<stop  offset="0" style="stop-color:#1A1A1A"/>
			<stop  offset="1" style="stop-color:#000000;stop-opacity:0"/>
		</linearGradient>
		<path id="path3783" class="st10" d="M788.3,514.6l1.9,6.2c1.7-1,3.5-1.7,5.5-2.1c16-3.2,34.4,20.8,38.7,42.9
			c0.7,3.4,8.7,28.8,8.9,32.1l4.1,0l-12.3-41.4c-5.6-26.3-22.6-44.9-38.4-41.7C793.6,511.2,790.8,512.6,788.3,514.6L788.3,514.6z"/>
		
			<linearGradient id="path3799_1_" gradientUnits="userSpaceOnUse" x1="1094.1885" y1="567.9579" x2="1011.5784" y2="566.7079" gradientTransform="matrix(-3.851204e-003 -0.8933 -0.8933 3.851204e-003 1333.5648 1503.932)">
			<stop  offset="0" style="stop-color:#1A1A1A"/>
			<stop  offset="1" style="stop-color:#000000;stop-opacity:0"/>
		</linearGradient>
		<path id="path3799" class="st11" d="M803.3,559.1l2.1,4c1-0.9,2.2-1.6,3.4-2.1c10.4-4.3,26.2,9.5,32.1,23.9c0.2,0.5,0.8,1.6,1.5,3
			l-3.5-12.2c-7.6-15.4-20.7-24.5-30.5-20.4C806.4,556.1,804.7,557.4,803.3,559.1L803.3,559.1z"/>
		
			<linearGradient id="path3803_1_" gradientUnits="userSpaceOnUse" x1="1085.8987" y1="564.7414" x2="1018.1386" y2="568.7414" gradientTransform="matrix(-3.851204e-003 -0.8933 -0.8933 3.851204e-003 1337.2042 1517.7234)">
			<stop  offset="0" style="stop-color:#1A1A1A"/>
			<stop  offset="1" style="stop-color:#000000;stop-opacity:0"/>
		</linearGradient>
		<path id="path3803" class="st12" d="M806.9,572.9l2.1,4c1-0.9,2.2-1.6,3.4-2.1c10.4-4.3,26.2,9.5,32.1,23.9c0.2,0.5,0.8,1.6,1.5,3
			l-3.5-12.2c-7.6-15.4-20.7-24.5-30.5-20.4C810.1,569.8,808.3,571.2,806.9,572.9L806.9,572.9z"/>
		
			<linearGradient id="rect3861_1_" gradientUnits="userSpaceOnUse" x1="479.7379" y1="227.0356" x2="455.6279" y2="232.4957" gradientTransform="matrix(0.1337 -0.991 -0.991 -0.1337 1007.8613 1669.1011)">
			<stop  offset="0" style="stop-color:#1A1A1A"/>
			<stop  offset="1" style="stop-color:#000000;stop-opacity:0"/>
		</linearGradient>
		<path id="rect3861" class="st13" d="M829.3,1182.8c-2.1-8.3-1.5-15.5,5.7-19.8l17.9,2.4c6.2,6.8,5,13.7,0.2,20.6L829.3,1182.8
			L829.3,1182.8z"/>
		
			<linearGradient id="path3864_1_" gradientUnits="userSpaceOnUse" x1="489.1223" y1="229.5742" x2="466.8523" y2="229.9842" gradientTransform="matrix(0.1337 -0.991 -0.991 -0.1337 1009.0991 1658.8356)">
			<stop  offset="0" style="stop-color:#1A1A1A"/>
			<stop  offset="1" style="stop-color:#000000;stop-opacity:0"/>
		</linearGradient>
		<path id="path3864" class="st14" d="M832.4,1162.5c-1.2-8.1-0.6-15.2,5.4-18.9l17,2.3c3,6.5,5.3,13,0.2,19.6L832.4,1162.5
			L832.4,1162.5z"/>
		<path id="path4025" class="st15" d="M835.6,1015.7c0.1,33.5,2.1,65.5,5.5,95.1l0.4,3.7l3.2-1.7c12.6-6.7,21-16.7,26.3-29.2
			c5.3-12.5,7.5-27.6,8.2-45.1c1.5-35-3-79.9-2.6-133.6c0.4-49.7,1.5-89.5,1.9-121.5l-4.8-1.1C850.3,830.1,835.1,916.7,835.6,1015.7
			L835.6,1015.7z M840.6,1015.7c-0.4-91.2,12.7-171.8,32.8-220.2c-0.5,30-1.3,65.2-1.7,109.3c-0.4,53.9,4.1,99,2.6,133.4
			c-0.7,17.2-3,31.8-7.9,43.4c-4.4,10.5-11.1,18.5-20.8,24.6C842.5,1077.9,840.7,1047.5,840.6,1015.7L840.6,1015.7z"/>
		<path id="rect2864" class="st16" d="M590.8,1156.6l12.8,77.7c4.5,27.1,49,48.7,105.1,50.5c56.1-2.3,100.4-24.3,104.6-51.5
			l12.1-77.8c-0.1-13.3-10.8-24-24.1-23.9l-186.6,0.8C601.4,1132.6,590.7,1143.3,590.8,1156.6L590.8,1156.6z"/>
		<path id="path3703" class="st16" d="M554.7,725.3c0,3,0.4,5.9,1,8.8c0,0,0,0,0,0l12.6,63.8c6.7,17.7,14.4,31.9,32.1,31.9
			l212.6-0.9c17.7-0.1,25.3-14.4,31.9-32.1l12-63.9c0,0,0,0,0,0c0.6-2.9,0.9-5.8,0.9-8.8c-0.2-45.4-57.7-81.9-151.9-81.7
			C611.7,642.9,554.5,679.9,554.7,725.3L554.7,725.3z"/>
		<path id="path4157" class="st2" d="M577,1016.8c0.1,33.4-1.5,65.3-4.7,94.8c-48.8-25.4-30.7-97.9-32.4-205.4
			c-0.8-49.7-2.3-89.5-2.9-121.5C560.5,831.8,576.5,918.1,577,1016.8L577,1016.8z"/>
		<path id="path4159" class="st3" d="M577,1016.8c0,3.2,0,6.4,0,9.6c-16.2-0.7-30.3-6.3-38.9-14.4c0.1-4.7,0.2-9.5,0.3-14.4
			c8.2,8.5,22.3,14.5,38.6,15.6C577,1014.3,577,1015.6,577,1016.8L577,1016.8z"/>
		<path id="path4161" class="st4" d="M602.2,428l-0.6,5.1c-2.4,21.6-25.8,37.8-54.4,39.5l-7.1,0.4l4.8-5.3
			c14.6-16,32.4-28.4,52.6-37.6L602.2,428L602.2,428z"/>
		<path id="path4163" class="st5" d="M592.1,633.6c0,0,22.3-79.8,31.5-105.5c9.7-26.9,38.7-99,38.7-99s-42.4,8.9-57.8,30.7
			c-54.5,77.5-52.9,232.9-52.9,232.9"/>
		
			<linearGradient id="path4165_1_" gradientUnits="userSpaceOnUse" x1="1095.7561" y1="587.7553" x2="1072.5861" y2="595.3753" gradientTransform="matrix(-4.311114e-003 -1 1 -4.311114e-003 -0.1943 1638.3026)">
			<stop  offset="0" style="stop-color:#1A1A1A"/>
			<stop  offset="1" style="stop-color:#000000;stop-opacity:0"/>
		</linearGradient>
		<path id="path4165" class="st17" d="M612.3,547.1l-2.3,4.4c-1.2-1-2.4-1.8-3.9-2.4c-11.7-4.7-29.2,10.9-35.7,27
			c-0.2,0.5-0.8,1.8-1.6,3.4l3.8-13.6c8.4-17.3,23-27.6,33.9-23.1C608.8,543.7,610.8,545.2,612.3,547.1L612.3,547.1z"/>
		
			<linearGradient id="path4167_1_" gradientUnits="userSpaceOnUse" x1="1114.8815" y1="900.6275" x2="1103.1215" y2="900.5675" gradientTransform="matrix(-4.311114e-003 -1 1 -4.311114e-003 -300.7481 1626.4688)">
			<stop  offset="0" style="stop-color:#1A1A1A"/>
			<stop  offset="1" style="stop-color:#000000;stop-opacity:0"/>
		</linearGradient>
		<path id="path4167" class="st18" d="M616.8,538.5l-2.3,4.4c-1.2-1-2.4-1.8-3.9-2.4c-11.7-4.7-29.2,10.9-35.7,27
			c-0.2,0.5-0.8,1.8-1.6,3.4l3.8-13.6c8.4-17.3,23-27.6,33.9-23.1C613.2,535.1,615.2,536.6,616.8,538.5L616.8,538.5z"/>
		
			<linearGradient id="path4169_1_" gradientUnits="userSpaceOnUse" x1="1106.5608" y1="897.0234" x2="1042.4807" y2="902.6134" gradientTransform="matrix(-4.311114e-003 -1 1 -4.311114e-003 -299.3748 1620.2758)">
			<stop  offset="0" style="stop-color:#1A1A1A"/>
			<stop  offset="1" style="stop-color:#000000;stop-opacity:0"/>
		</linearGradient>
		<path id="path4169" class="st19" d="M618.2,532.3l-2.3,4.4c-1.2-1-2.4-1.8-3.9-2.4c-11.7-4.7-29.2,10.9-35.7,27
			c-0.2,0.5-0.8,1.8-1.6,3.4l3.8-13.6c8.4-17.3,23-27.6,33.9-23.1C614.6,528.9,616.6,530.4,618.2,532.3L618.2,532.3z"/>
		
			<linearGradient id="path4171_1_" gradientUnits="userSpaceOnUse" x1="1113.334" y1="874.5679" x2="1099.874" y2="881.598" gradientTransform="matrix(-4.311114e-003 -1 1 -4.311114e-003 -300.7481 1626.4688)">
			<stop  offset="0" style="stop-color:#1A1A1A"/>
			<stop  offset="1" style="stop-color:#000000;stop-opacity:0"/>
		</linearGradient>
		<path id="path4171" class="st20" d="M622.4,515.3l-1.8,6.2c-1.7-1-3.5-1.6-5.5-2c-16-3.1-34.2,21.1-38.3,43.2
			c-0.6,3.4-8.5,28.9-8.7,32.2l-4.1,0l12-41.5c5.4-26.3,22.3-45,38.1-42C617.1,512,619.9,513.3,622.4,515.3L622.4,515.3z"/>
		
			<linearGradient id="path4173_1_" gradientUnits="userSpaceOnUse" x1="1091.3339" y1="871.3272" x2="1046.6139" y2="922.2972" gradientTransform="matrix(-4.311114e-003 -1 1 -4.311114e-003 -300.7481 1626.4688)">
			<stop  offset="0" style="stop-color:#1A1A1A"/>
			<stop  offset="1" style="stop-color:#000000;stop-opacity:0"/>
		</linearGradient>
		<path id="path4173" class="st21" d="M622.4,515.3l-1.8,6.2c-1.7-1-3.5-1.6-5.5-2c-16-3.1-34.2,21.1-38.3,43.2
			c-0.6,3.4-8.5,28.9-8.7,32.2l-4.1,0l12-41.5c5.4-26.3,22.3-45,38.1-42C617.1,512,619.9,513.3,622.4,515.3L622.4,515.3z"/>
		
			<linearGradient id="path4175_1_" gradientUnits="userSpaceOnUse" x1="1094.1881" y1="919.478" x2="1011.5781" y2="918.228" gradientTransform="matrix(-3.851204e-003 -0.8933 0.8933 -3.851204e-003 -228.3227 1510.6655)">
			<stop  offset="0" style="stop-color:#1A1A1A"/>
			<stop  offset="1" style="stop-color:#000000;stop-opacity:0"/>
		</linearGradient>
		<path id="path4175" class="st22" d="M607.8,559.9l-2.1,4c-1-0.9-2.2-1.6-3.4-2.1c-10.5-4.2-26.1,9.7-31.9,24.1
			c-0.2,0.5-0.7,1.6-1.5,3l3.4-12.2c7.5-15.5,20.5-24.6,30.3-20.7C604.6,556.9,606.4,558.2,607.8,559.9L607.8,559.9z"/>
		
			<linearGradient id="path4177_1_" gradientUnits="userSpaceOnUse" x1="1085.9012" y1="916.2839" x2="1018.1412" y2="920.2839" gradientTransform="matrix(-3.851204e-003 -0.8933 0.8933 -3.851204e-003 -231.8632 1524.4879)">
			<stop  offset="0" style="stop-color:#1A1A1A"/>
			<stop  offset="1" style="stop-color:#000000;stop-opacity:0"/>
		</linearGradient>
		<path id="path4177" class="st23" d="M604.3,573.7l-2.1,4c-1-0.9-2.2-1.6-3.4-2.1c-10.5-4.2-26.1,9.7-31.9,24.1
			c-0.2,0.5-0.7,1.6-1.5,3l3.4-12.2c7.5-15.5,20.5-24.6,30.3-20.7C601.1,570.7,602.8,572,604.3,573.7L604.3,573.7z"/>
		
			<linearGradient id="path4179_1_" gradientUnits="userSpaceOnUse" x1="436.4014" y1="538.0009" x2="412.2914" y2="543.4609" gradientTransform="matrix(-0.1423 -0.9898 0.9898 -0.1423 98.8378 1673.02)">
			<stop  offset="0" style="stop-color:#1A1A1A"/>
			<stop  offset="1" style="stop-color:#000000;stop-opacity:0"/>
		</linearGradient>
		<path id="path4179" class="st24" d="M587.2,1183.9c2-8.3,1.4-15.5-5.9-19.8l-17.9,2.6c-6.1,6.9-4.9,13.8-0.1,20.6L587.2,1183.9
			L587.2,1183.9z"/>
		
			<linearGradient id="path4181_1_" gradientUnits="userSpaceOnUse" x1="445.793" y1="540.5646" x2="423.523" y2="540.9745" gradientTransform="matrix(-0.1423 -0.9898 0.9898 -0.1423 97.4935 1662.7656)">
			<stop  offset="0" style="stop-color:#1A1A1A"/>
			<stop  offset="1" style="stop-color:#000000;stop-opacity:0"/>
		</linearGradient>
		<path id="path4181" class="st25" d="M583.9,1163.6c1.2-8.2,0.5-15.2-5.6-18.8l-17,2.4c-2.9,6.5-5.2,13-0.1,19.6L583.9,1163.6
			L583.9,1163.6z"/>
		<path id="path4183" class="st15" d="M579.5,1016.8c0.1,33.5-1.5,65.5-4.7,95.1l-0.4,3.7l-3.3-1.7c-12.7-6.6-21.2-16.5-26.6-28.9
			c-5.4-12.5-7.7-27.5-8.6-45.1c-1.8-35,2.3-80,1.4-133.6c-0.8-49.7-2.3-89.5-2.9-121.5l4.7-1.1C563.1,831.4,579,917.8,579.5,1016.8
			L579.5,1016.8z M574.5,1016.9c-0.4-91.2-14.2-171.7-34.7-219.9c0.7,29.9,1.9,65.2,2.6,109.3c0.9,53.9-3.2,99-1.5,133.4
			c0.9,17.2,3.2,31.8,8.2,43.4c4.5,10.4,11.2,18.4,21,24.4C573.1,1079.1,574.6,1048.6,574.5,1016.9L574.5,1016.9z"/>
	</g>
</g>
</svg>
