<?xml version="1.0" encoding="utf-8"?>
<!-- Generator: Adobe Illustrator 19.0.0, SVG Export Plug-In . SVG Version: 6.00 Build 0)  -->
<svg version="1.1" id="Layer_1" xmlns="http://www.w3.org/2000/svg" xmlns:xlink="http://www.w3.org/1999/xlink" x="0px" y="0px"
	 viewBox="0 0 103 170" style="enable-background:new 0 0 103 170;" xml:space="preserve">
<style type="text/css">
	.st0{fill:#588EBE;}
</style>
<path id="XMLID_2_" class="st0" d="M19.1,157.1V25.7c0-14.5,11.7-26.2,26.2-26.2H63c14.5,0,26.2,11.7,26.2,26.2v131.4
	c0,8.1-6.6,14.7-14.7,14.7H33.8C25.7,171.8,19.1,165.2,19.1,157.1z M79.5,126.9l-1.1-58.6L87.7,29C87.7,14.5,76,2.8,61.5,2.8H46.8
	C32.3,2.8,20.6,14.5,20.6,29l9.3,39.2l-1.1,58.6C28.8,140.7,79.5,140.7,79.5,126.9z M11.3,55.1c0,0,7.8-1.7,9.1-2.6
	c1.3-0.9,1.9-4.6,0-4.3C11.3,49.8,11.3,55.1,11.3,55.1z M87.9,48.3c-1.9-0.3-1.3,3.4,0,4.3s9.1,2.6,9.1,2.6S97,49.8,87.9,48.3z
	 M21.7,104.7c0,31.4,3.2,44.7,3.2,44.7s1.6,0.5,2.6-1.8c1-2.3,0.5-66.1,0-71.2c-0.5-5.1-5.8-31.9-5.8-31.9S21.7,73.4,21.7,104.7z
	 M86.6,44.5c0,0-5.3,26.8-5.8,31.9c-0.5,5.1-1,68.9,0,71.2c1,2.3,2.6,1.8,2.6,1.8s3.2-13.3,3.2-44.7S86.6,44.5,86.6,44.5z
	 M54.2,72.1c16.1,0,24.2,1.6,24.2,1.6s6.1-26.9,5-31.9c-1.1-5-14.5-8.7-29.3-8.7c-14.8,0-28.2,3.7-29.3,8.7c-1.1,5,5,31.9,5,31.9
	S38.1,72.1,54.2,72.1z M37.2,8.1c-0.1-1.3-0.9-2.4-1.9-3.1c0,0,0,0,0,0c-4.3,1.7-7.9,4.8-10.4,8.8c3,0.9,6.4,0.6,9.1-0.9
	C35.7,11.8,37.3,10.1,37.2,8.1z M74.3,12.8c2.8,1.5,6.1,1.9,9.1,0.9C81,9.8,77.3,6.7,73,5c0,0,0,0,0,0c-1,0.7-1.8,1.9-1.9,3.1
	C71,10.1,72.6,11.8,74.3,12.8z M30.4,166.8c-2.2-0.7-4.2-1.8-5.9-3.4c-0.4-0.4-0.8-0.9-1.4-1.1c-0.4-0.2-0.8-0.2-1.2-0.1
	c2.3,3.2,5.9,5.4,9.9,5.9c0,0,0,0,0,0C31.9,167.3,31,167,30.4,166.8z M76.4,168C76.4,168,76.4,168,76.4,168c4.1-0.5,7.6-2.7,9.9-5.9
	c-0.4-0.1-0.8,0-1.2,0.1c-0.5,0.3-1,0.7-1.4,1.1c-1.7,1.6-3.7,2.8-5.9,3.4C77.3,167,76.4,167.3,76.4,168z M76.2,137.5
	c0,0-9.2,4.7-22,4.7s-22-4.7-22-4.7c-1.8,5.2-2.5,12.1-2.8,15.8c-0.1,1.7,0.8,3.2,2.3,3.9c3.9,1.9,12.1,5.2,22.5,5.2
	c10.4,0,18.6-3.3,22.5-5.2c1.5-0.7,2.4-2.3,2.3-3.9C78.7,149.5,78,142.6,76.2,137.5z"/>
</svg>
