<?xml version="1.0" encoding="utf-8"?>
<!-- Generator: Adobe Illustrator 19.0.0, SVG Export Plug-In . SVG Version: 6.00 Build 0)  -->
<svg version="1.1" id="Layer_1" xmlns="http://www.w3.org/2000/svg" xmlns:xlink="http://www.w3.org/1999/xlink" x="0px" y="0px"
	 viewBox="-231 247 148 300" style="enable-background:new -231 247 148 300;" xml:space="preserve">
<g transform="translate(0.000000,300.000000) scale(0.050000,-0.050000)">
	<path d="M-3829,965c-303-93-539-386-517-644c10-124,7-143-21-143c-30,0-33-44-33-430c0-417,1-430,40-430c77,0,39-32-85-71
		c-117-36-125-43-131-104c-7-74-4-75,128-35c54,16,103,30,110,30c13,0,31-599,49-1610c6-330,15-620,20-644c6-30-3-51-31-66
		c-60-32-63-838-2-854c33-8,39-38,52-253c19-336,31-356,270-478c61-31,88-51,60-45l-50,11l52-29c90-52,340-111,507-121l161-9
		l-140,19c-77,11-147,22-155,24c-8,3,183,5,425,5s433-2,425-5c-8-2-78-12-155-22c-118-15-126-18-50-20c121-3,432,63,542,114
		c50,25,67,38,38,33c-27-6,4,17,70,49c235,115,256,153,267,474c7,225,11,247,45,247c36,0,38,23,38,430c0,385-3,430-33,430
		c-29,0-31,44-20,485c7,267,18,789,26,1160c7,371,17,675,22,675s58-14,119-32c129-37,167-20,131,59c-21,46-73,71-210,102
		c-63,14-74,51-15,51c37,0,40,15,44,175c10,529,6,669-22,684c-21,12-27,55-25,164c7,250-239,539-534,628
		C-2555,1011-3689,1008-3829,965z M-2835,963c-157-3-413-3-570,0s-28,6,285,6C-2806,969-2678,966-2835,963z M-3842,902
		c-13-20-69-62-126-93c-56-31-133-80-172-108c-51-37-62-41-40-13C-4077,821-3773,1013-3842,902z M-2865,923c-140-3-370-3-510,0
		s-25,6,255,6C-2839,929-2725,926-2865,923z M-2300,895c105-63,218-156,240-197c20-38-200,96-310,188C-2445,949-2399,955-2300,895z
		 M-2514,867c22-9,26-28,14-79c-8-37-16-169-18-294c-1-124-8-327-15-450c-12-234,4-424,33-393c29,29,105,824,96,1002l-9,165l52-33
		c109-71,140-98,140-123c1-15,11-20,26-12c14,8,19,7,11-1c-8-9-1-41,15-73c22-43,29-145,30-442c1-212,9-435,18-496
		c21-142,33-137-215-74c-426,110-859,136-1219,73c-171-29-168-31-141,71c15,57,13,230-7,610c-20,367-22,535-8,545
		C-3687,880-2558,884-2514,867z M-3824,733c-25-106,18-708,75-1057l11-72l-136-35c-259-68-270-66-210,43c17,30,24,177,24,478
		c0,489,13,545,152,667C-3815,838-3801,834-3824,733z M-4286-302l-1-410l-14,290c-20,405-18,813,2,650C-4291,162-4285-76-4286-302z
		 M-1937-532l-18-180l-2,242c-2,133,4,367,12,520l15,278l5-340C-1922-199-1927-433-1937-532z M-4341-237c-2-81-5-89-23-51
		c-19,40-9,146,14,146C-4344-142-4341-185-4341-237z M-1879-309c-15-15-21,2-21,60c0,105,28,133,36,36C-1860-254-1867-297-1879-309z
		 M-4156-537c12-14,17-31,12-36c-6-6,6-79,25-164c35-149,35-152-1-106c-57,77-80,183-77,353c3,103,7,127,12,68
		C-4181-471-4168-523-4156-537z M-2380-490c127-29,232-52,235-52c19,0-3-122-45-254c-58-182-197-415-239-399
		c-142,54-1007,63-1291,13c-128-23-131-20-250,203c-66,125-148,406-124,429c15,16,241,67,434,98C-3372-404-2669-425-2380-490z
		 M-2060-622c-11-63-9-94,7-105c15-9,11-14-12-15c-19,0-35-13-35-29s-8-34-18-40s-6,44,10,111s24,129,18,138c-8,13,30,42,43,32
		C-2045-531-2051-572-2060-622z M-4220-753c0-16,30-63,67-104c88-98,119-163,165-345c49-195,58-1813,11-1947c-29-82-133-213-169-213
		c-12,0,2,25,30,55c130,139,126,106,126,1085c0,1027-17,1152-181,1329c-47,51-104,202-67,180C-4228-719-4220-737-4220-753z
		 M-2001-785c-10-39-38-88-61-109c-159-143-183-303-193-1273c-9-927-3-989,116-1116c33-35,55-70,48-77c-23-21-142,134-167,218
		c-17,58-24,324-25,926c-1,1015,13,1120,177,1327c36,46,75,108,86,138C-1991-675-1977-699-2001-785z M-4102-1090
		c72-193,123-1012,63-1012c-85,0-119,46-116,158c3,174-23,843-37,932C-4210-900-4156-947-4102-1090z M-2058-1045
		c-11-48-24-298-30-556c-10-501-8-494-110-500c-39-2-18,716,27,898C-2121-1002-2015-853-2058-1045z M-4265-1577c-4-85-7-15-7,155
		c0,171,3,240,7,155S-4261-1492-4265-1577z M-2480-1234l90-12l-6-848c-4-504,2-876,13-918c18-63,15-73-34-108
		c-185-132-1093-149-1342-26l-68,34l1,926c1,510,6,931,12,936C-3774-1209-2746-1197-2480-1234z M-1965-1686c-4-69-7-18-7,114
		s3,189,7,126S-1961-1617-1965-1686z M-1980-1946c0-18-9-39-20-46c-12-7-20,18-20,64c1,56,6,68,20,46
		C-1989-1898-1980-1927-1980-1946z M-4052-2174c28-11,32-61,32-360v-347l-51-13c-69-17-64-41-80,367C-4167-2130-4167-2130-4052-2174
		z M-2088-2217c-6-30-14-197-17-370c-5-322-8-332-83-303c-42,16-49,698-7,715C-2119-2145-2077-2161-2088-2217z M-4245-2488
		c-5-46-8-3-8,96s4,137,8,84C-4241-2360-4241-2441-4245-2488z M-1985-2637c-5-41-8-7-8,75c0,83,3,116,8,75
		C-1981-2528-1981-2596-1985-2637z M-4180-2812c0-38-9-70-20-70s-20,32-20,70c0,39,9,70,20,70S-4180-2773-4180-2812z M-4050-3154
		c-58-152-90-153-90-2c0,119,5,135,55,175l55,43l7-65C-4020-3039-4032-3107-4050-3154z M-2149-2974c44-29,49-46,49-163
		c0-130,0-131-40-95c-43,39-80,147-80,235C-2220-2933-2215-2931-2149-2974z M-4206-4132l-1-340l-14,290c-8,160-13,479-13,710l1,420
		l14-370C-4211-3625-4206-3945-4206-4132z M-3824-3181c211-154,1131-161,1398-12c97,54,95,56,136-101c48-185,41-411-15-463
		c-245-229-1385-229-1630,0c-67,62-60,369,13,560C-3897-3131-3894-3131-3824-3181z M-2021-4058c-16-25-19,15-10,154
		c6,104,13,315,16,470c3,206,6,164,10-154C-2001-3877-2007-4036-2021-4058z M-1938-3670c-14-48-18-20-18,118l1,180l17-118
		C-1928-3559-1928-3635-1938-3670z M-4275-3672c-20-63-37,53-26,178l9,102l15-120C-4269-3578-4268-3650-4275-3672z M-3543-3994
		c391-74,942-22,1287,121c30,13,34-8,40-205c3-127-2-216-12-209c-10,6-12-13-4-44c8-32,4-66-10-83c-17-21-17-28,1-28
		c28,0,18-84-20-165c-108-235-1155-307-1576-110c-81,39-137,115-113,155c6,9-4,31-21,48c-20,21-23,32-8,32c16,0,18,8,4,25
		c-19,24-50,563-33,580c4,4,71-13,149-38S-3639-3976-3543-3994z M-2025-4406c-5-48-8-14-8,74s3,126,8,86
		C-2021-4287-2021-4359-2025-4406z"/>
	<path d="M-3510-464.5c0,0.4,42.6,3.8,42.5,5c-0.1,1.8-96.2-1.6-170-12.5c-17.2-2.5-33.9-5-56.2-10.5c-19.8-4.9-26.3-7.8-46.5-12.6
		c-21.7-5.1-35.3-6.7-52.3-9.4c-14.5-2.2-38.9-7.3-87.5-17.5c-30.3-6.3-69.9-14.8-116.7-25.3l-50-19c3.1-18.6,6.1-37.1,9.2-55.7
		c8-30.1,22-77,45-132.5c28.2-68,35.9-66.8,65-137.5c20.1-48.8,30.8-84.2,62.5-152.5c19.2-41.2,26.9-53.5,40-65
		c39.4-34.8,93.2-33.6,122.5-32.5c127.4,4.6,220.1,21.3,292.5,30c66.5,8,131.8,8.6,262.5,10c80.3,0.8,141.6-0.6,225-2.5
		c80.5-1.9,116.2-3.7,137.5-5c41.4-2.4,41.7-3.3,132.5-10c108.4-8,105.7-6.5,130-10c82.5-11.7,87.4-24.4,110-15
		c27.5,11.5,47,57.8,85,150c11.2,27.2,20,50.7,30,77.5c8.4,22.4,16,43.6,37.5,105c39.7,113.5,50.5,147.3,43.3,196.7
		c-1.5,10.1-1.5,15.4-4,20.4c-27.3,55.1-108.3,68.5-306,96.6c-214.5,30.4-204.6,31.3-260.8,36.3c-82.3,7.4-143.9,9.2-257.5,12.5
		c-100.3,2.9-150.4,4.3-215,2.5C-3395.8-450.9-3509.9-465.2-3510-464.5z"/>
	<path d="M-3707-1657c-19-323,4-1345,30-1345c19,0,19,1071-1,1410l-12,220L-3707-1657z"/>
	<path d="M-2567-1761c-17-474-15-1109,4-1211c22-115,43,420,42,1018C-2523-1366-2548-1258-2567-1761z"/>
</g>
<path d="M-71.3,408.8"/>
<rect x="-184.7" y="369.5" width="57.7" height="80.1"/>
<path d="M-193.3,461.4c-0.9,2.3-1.4,4.2-1.8,5.8c-0.5,2.5-0.7,4.5-0.8,6.3c-0.1,1.4-0.2,3.2,0,5.5c0.2,2.5,0.3,3.7,0.8,4.8
	c1.2,2.7,4,3.8,7.3,5c2,0.8,3.3,1,10.3,2.3c5.4,0.9,8.1,1.4,8.8,1.5c4.5,0.5,7.9,0.5,12.3,0.5c3.3,0,6.8,0,11.5-0.5
	s8.1-1.1,11.3-1.8c2.5-0.5,4.8-1.1,9.3-2.3c5.4-1.4,6.5-1.8,7.3-3c0.8-1.1,0.8-3.2,0.8-7.3c0-1.6-0.1-3-0.3-5.8
	c-0.6-8.5-0.9-9.2-1.5-9.5c-1.3-0.7-2.4,0.9-7.3,2.8c-2.5,0.9-4.5,1.4-7.5,2c-3.3,0.7-5.9,1-7.8,1.3c-1.1,0.1-4.6,0.5-10.5,0.8
	c-6,0.2-9,0.3-13.3,0c-6.4-0.5-11.1-1.7-12.5-2c-3.5-0.9-6.3-1.9-8.5-2.8"/>
<path d="M-197.5,497.9c0,1.5,0.1,3.7,0.3,6.3c0.3,4.3,0.6,7.6,1,10.8c0.7,6.5,0.9,5.2,1,7.8c0.1,2.5,0,3.6,0.8,5.3
	c1,2.2,2.7,3.5,3.8,4.3c0.6,0.5,1.8,1.2,5.8,2.5c1.9,0.6,4.2,1.3,7.8,2c3.8,0.7,6.6,0.9,9.6,1.1c4.8,0.3,8.4,0.3,11.1,0.3
	c4.3-0.1,7.6-0.3,8.8-0.4c3.5-0.3,6.3-0.5,10-1.1c2.6-0.5,4.5-0.9,8.3-1.9c0.9-0.2,3-0.8,5.8-1.6c4.5-1.4,5.5-2.1,6.4-3
	c1.4-1.4,2-3,2.1-3.3c0.4-0.9,0.5-1.9,0.9-3.6c0.1-0.6,0.2-1.1,0.3-1.6c0.1-0.5,0.1-1.1,0.1-2.1c0-1.4,0-2.6,0-3.1
	c0-1.6-0.1-2-0.1-3.3c0-1.2,0-2.2,0-4.1c0-3.3,0.1-5,0.1-6c0.2-3.3,0.5-3.9,0-4.4c-0.7-0.7-2,0.1-6.9,1.8c-2.3,0.8-4,1.4-6.3,2
	c-0.9,0.2-2.4,0.6-5.4,1.3c-2.8,0.6-4.3,1-5.3,1.1c-2,0.3-3.1,0.4-5.8,0.6c-5.7,0.5-5.4,0.7-8.3,0.9c-3,0.2-5.3,0.1-9.9-0.2
	c-4.1-0.2-6.4-0.3-9.6-0.8c-2.1-0.3-4.2-0.8-8.3-1.8c-3.5-0.8-6.3-1.5-8.3-2"/>
<path d="M-180.7,259.9c0.6,10.1,0.9,15.7,1,15.7s-0.1-6.3-0.2-6.3c0,0-0.1,5.4,0.3,12c0.1,2,0.2,3.5,0.5,6.7c0.1,1,0.4,3.5,0.8,8.7
	c0.2,2.9,0.3,4.3,1,6.3c0.5,1.4,1.3,3.5,3.2,4.8c2.1,1.5,4.4,1.4,6,1.3c4.6-0.1,9.2,0.3,13.8,0.3c6.3,0,10.4,0.5,15.8-0.7
	c1.5-0.3,3.9-0.9,5.3-3c0.9-1.4,1-2.8,1-3.7c0.2-3.8,0.7-7.5,0.8-11.3c0-1.6,0.4-5,1-11.8c0.3-3.6,0.4-4.4,0.8-8.7
	c0.4-4.1,0.7-7.5,0.8-9.7"/>
</svg>
