<?xml version="1.0" encoding="utf-8"?>
<!-- Generator: Adobe Illustrator 19.0.0, SVG Export Plug-In . SVG Version: 6.00 Build 0)  -->
<svg version="1.1" id="Layer_1" xmlns="http://www.w3.org/2000/svg" xmlns:xlink="http://www.w3.org/1999/xlink" x="0px" y="0px"
	 viewBox="-270 365 70.5 63" style="enable-background:new -270 365 70.5 63;" xml:space="preserve">
<style type="text/css">
	.st0{fill:#384AD7;}
</style>
<title>app-icon-reporting-mono</title>
<g id="Layer_2">
	<g id="ICON_VARIATIONS">
		<path class="st0" d="M-201.9,367.8c-3-3.4-8.3-3.7-11.7-0.7c-3.2,2.9-3.7,7.7-1.1,11.1l-5.1,7.6c-4.3-1.5-9,0.7-10.6,5
			c-0.2,0.5-0.3,1.1-0.4,1.6l-9.4,1.6c-1.9-4.2-6.8-6-10.9-4.1c-4.2,1.9-6,6.8-4.1,10.9c0.3,0.7,0.8,1.4,1.3,2l-5.7,8.9
			c-0.6-0.2-1.2-0.3-1.9-0.3c-4.6-0.2-8.5,3.3-8.7,7.8c-0.2,4.6,3.3,8.5,7.8,8.7l0,0h0.5c4.6,0,8.3-3.7,8.3-8.3c0-2-0.7-3.9-2-5.4
			l5.7-8.9c0.6,0.2,1.2,0.3,1.9,0.3h0.5c4.1,0,7.6-3,8.2-7.1l9.3-1.6c1.3,2.8,4,4.6,7.1,4.8h0.5c4.6,0,8.3-3.7,8.3-8.3
			c0-1.8-0.6-3.6-1.7-5l5.1-7.5c0.8,0.3,1.6,0.5,2.5,0.5h0.5c4.6,0,8.3-3.7,8.2-8.3C-199.9,371.2-200.6,369.3-201.9,367.8z
			 M-259.6,422.4c-1.5,1.3-3.8,1.2-5.1-0.3s-1.2-3.8,0.3-5.1c0.7-0.6,1.5-0.9,2.4-0.9h0.2c2,0.1,3.5,1.8,3.4,3.8
			C-258.5,420.9-258.9,421.8-259.6,422.4z M-248,401c-2-0.1-3.6-1.7-3.5-3.7s1.7-3.6,3.7-3.5h0.2c2,0.1,3.5,1.8,3.4,3.8
			C-244.3,399.6-246,401.1-248,401L-248,401z M-220.3,396.3c-0.7,0.6-1.7,1-2.6,0.9c-2-0.1-3.5-1.8-3.4-3.8s1.8-3.5,3.8-3.4
			s3.5,1.8,3.4,3.8C-219.2,394.7-219.6,395.6-220.3,396.3z M-205.7,376c-1.5,1.3-3.8,1.2-5.1-0.3s-1.2-3.8,0.3-5.1
			c0.7-0.6,1.5-0.9,2.4-0.9h0.2c2,0.1,3.5,1.8,3.4,3.8C-204.5,374.5-205,375.4-205.7,376z"/>
	</g>
</g>
</svg>
