<?xml version="1.0" encoding="utf-8"?>
<!-- Generator: Adobe Illustrator 19.0.0, SVG Export Plug-In . SVG Version: 6.00 Build 0)  -->
<svg version="1.1" id="Layer_1" xmlns="http://www.w3.org/2000/svg" xmlns:xlink="http://www.w3.org/1999/xlink" x="0px" y="0px"
	 viewBox="-231 247 148 300" style="enable-background:new -231 247 148 300;" xml:space="preserve">
<style type="text/css">
	.st0{fill:#EB1313;}
</style>
<g transform="translate(0.000000,300.000000) scale(0.050000,-0.050000)">
	<path class="st0" d="M-3870.9,985c-303-93-539-386-517-644c10-124,7-143-21-143c-30,0-33-44-33-430c0-417,1-430,40-430
		c77,0,39-32-85-71c-117-36-125-43-131-104c-7-74-4-75,128-35c54,16,103,30,110,30c13,0,31-599,49-1610c6-330,15-620,20-644
		c6-30-3-51-31-66c-60-32-63-838-2-854c33-8,39-38,52-253c19-336,31-356,270-478c61-31,88-51,60-45l-50,11l52-29
		c90-52,340-111,507-121l161-9l-140,19c-77,11-147,22-155,24c-8,3,183,5,425,5c242,0,433-2,425-5c-8-2-78-12-155-22
		c-118-15-126-18-50-20c121-3,432,63,542,114c50,25,67,38,38,33c-27-6,4,17,70,49c235,115,256,153,267,474c7,225,11,247,45,247
		c36,0,38,23,38,430c0,385-3,430-33,430c-29,0-31,44-20,485c7,267,18,789,26,1160c7,371,17,675,22,675s58-14,119-32
		c129-37,167-20,131,59c-21,46-73,71-210,102c-63,14-74,51-15,51c37,0,40,15,44,175c10,529,6,669-22,684c-21,12-27,55-25,164
		c7,250-239,539-534,628C-2596.9,1031-3730.9,1028-3870.9,985z M-2876.9,983c-157-3-413-3-570,0s-28,6,285,6
		C-2847.9,989-2719.9,986-2876.9,983z M-3883.9,922c-13-20-69-62-126-93c-56-31-133-80-172-108c-51-37-62-41-40-13
		C-4118.9,841-3814.9,1033-3883.9,922z M-2906.9,943c-140-3-370-3-510,0s-25,6,255,6C-2880.9,949-2766.9,946-2906.9,943z
		 M-2341.9,915c105-63,218-156,240-197c20-38-200,96-310,188C-2486.9,969-2440.9,975-2341.9,915z M-2555.9,887c22-9,26-28,14-79
		c-8-37-16-169-18-294c-1-124-8-327-15-450c-12-234,4-424,33-393c29,29,105,824,96,1002l-9,165l52-33c109-71,140-98,140-123
		c1-15,11-20,26-12c14,8,19,7,11-1c-8-9-1-41,15-73c22-43,29-145,30-442c1-212,9-435,18-496c21-142,33-137-215-74
		c-426,110-859,136-1219,73c-171-29-168-31-141,71c15,57,13,230-7,610c-20,367-22,535-8,545C-3728.9,900-2599.9,904-2555.9,887z
		 M-3865.9,753c-25-106,18-708,75-1057l11-72l-136-35c-259-68-270-66-210,43c17,30,24,177,24,478c0,489,13,545,152,667
		C-3856.9,858-3842.9,854-3865.9,753z M-4327.9-282l-1-410l-14,290c-20,405-18,813,2,650C-4332.9,182-4326.9-56-4327.9-282z
		 M-1978.9-512l-18-180l-2,242c-2,133,4,367,12,520l15,278l5-340C-1963.9-179-1968.9-413-1978.9-512z M-4382.9-217c-2-81-5-89-23-51
		c-19,40-9,146,14,146C-4385.9-122-4382.9-165-4382.9-217z M-1920.9-289c-15-15-21,2-21,60c0,105,28,133,36,36
		C-1901.9-234-1908.9-277-1920.9-289z M-4197.9-517c12-14,17-31,12-36c-6-6,6-79,25-164c35-149,35-152-1-106c-57,77-80,183-77,353
		c3,103,7,127,12,68C-4222.9-451-4209.9-503-4197.9-517z M-2421.9-470c127-29,232-52,235-52c19,0-3-122-45-254
		c-58-182-197-415-239-399c-142,54-1007,63-1291,13c-128-23-131-20-250,203c-66,125-148,406-124,429c15,16,241,67,434,98
		C-3413.9-384-2710.9-405-2421.9-470z M-2101.9-602c-11-63-9-94,7-105c15-9,11-14-12-15c-19,0-35-13-35-29s-8-34-18-40s-6,44,10,111
		s24,129,18,138c-8,13,30,42,43,32C-2086.9-511-2092.9-552-2101.9-602z M-4261.9-733c0-16,30-63,67-104c88-98,119-163,165-345
		c49-195,58-1813,11-1947c-29-82-133-213-169-213c-12,0,2,25,30,55c130,139,126,106,126,1085c0,1027-17,1152-181,1329
		c-47,51-104,202-67,180C-4269.9-699-4261.9-717-4261.9-733z M-2042.9-765c-10-39-38-88-61-109c-159-143-183-303-193-1273
		c-9-927-3-989,116-1116c33-35,55-70,48-77c-23-21-142,134-167,218c-17,58-24,324-25,926c-1,1015,13,1120,177,1327
		c36,46,75,108,86,138C-2032.9-655-2018.9-679-2042.9-765z M-4143.9-1070c72-193,123-1012,63-1012c-85,0-119,46-116,158
		c3,174-23,843-37,932C-4251.9-880-4197.9-927-4143.9-1070z M-2099.9-1025c-11-48-24-298-30-556c-10-501-8-494-110-500
		c-39-2-18,716,27,898C-2162.9-982-2056.9-833-2099.9-1025z M-4306.9-1557c-4-85-7-15-7,155c0,171,3,240,7,155
		S-4302.9-1472-4306.9-1557z M-2521.9-1214l90-12l-6-848c-4-504,2-876,13-918c18-63,15-73-34-108c-185-132-1093-149-1342-26l-68,34
		l1,926c1,510,6,931,12,936C-3815.9-1189-2787.9-1177-2521.9-1214z M-2006.9-1666c-4-69-7-18-7,114s3,189,7,126
		S-2002.9-1597-2006.9-1666z M-2021.9-1926c0-18-9-39-20-46c-12-7-20,18-20,64c1,56,6,68,20,46
		C-2030.9-1878-2021.9-1907-2021.9-1926z M-4093.9-2154c28-11,32-61,32-360v-347l-51-13c-69-17-64-41-80,367
		C-4208.9-2110-4208.9-2110-4093.9-2154z M-2129.9-2197c-6-30-14-197-17-370c-5-322-8-332-83-303c-42,16-49,698-7,715
		C-2160.9-2125-2118.9-2141-2129.9-2197z M-4286.9-2468c-5-46-8-3-8,96s4,137,8,84C-4282.9-2340-4282.9-2421-4286.9-2468z
		 M-2026.9-2617c-5-41-8-7-8,75c0,83,3,116,8,75C-2022.9-2508-2022.9-2576-2026.9-2617z M-4221.9-2792c0-38-9-70-20-70s-20,32-20,70
		c0,39,9,70,20,70S-4221.9-2753-4221.9-2792z M-4091.9-3134c-58-152-90-153-90-2c0,119,5,135,55,175l55,43l7-65
		C-4061.9-3019-4073.9-3087-4091.9-3134z M-2190.9-2954c44-29,49-46,49-163c0-130,0-131-40-95c-43,39-80,147-80,235
		C-2261.9-2913-2256.9-2911-2190.9-2954z M-4247.9-4112l-1-340l-14,290c-8,160-13,479-13,710l1,420l14-370
		C-4252.9-3605-4247.9-3925-4247.9-4112z M-3865.9-3161c211-154,1131-161,1398-12c97,54,95,56,136-101c48-185,41-411-15-463
		c-245-229-1385-229-1630,0c-67,62-60,369,13,560C-3938.9-3111-3935.9-3111-3865.9-3161z M-2062.9-4038c-16-25-19,15-10,154
		c6,104,13,315,16,470c3,206,6,164,10-154C-2042.9-3857-2048.9-4016-2062.9-4038z M-1979.9-3650c-14-48-18-20-18,118l1,180l17-118
		C-1969.9-3539-1969.9-3615-1979.9-3650z M-4316.9-3652c-20-63-37,53-26,178l9,102l15-120C-4310.9-3558-4309.9-3630-4316.9-3652z
		 M-3584.9-3974c391-74,942-22,1287,121c30,13,34-8,40-205c3-127-2-216-12-209c-10,6-12-13-4-44c8-32,4-66-10-83c-17-21-17-28,1-28
		c28,0,18-84-20-165c-108-235-1155-307-1576-110c-81,39-137,115-113,155c6,9-4,31-21,48c-20,21-23,32-8,32c16,0,18,8,4,25
		c-19,24-50,563-33,580c4,4,71-13,149-38S-3680.9-3956-3584.9-3974z M-2066.9-4386c-5-48-8-14-8,74s3,126,8,86
		C-2062.9-4267-2062.9-4339-2066.9-4386z"/>
	<path class="st0" d="M-3551.9-444.5c0,0.4,42.6,3.8,42.5,5c-0.1,1.8-96.2-1.6-170-12.5c-17.2-2.5-33.9-5-56.2-10.5
		c-19.8-4.9-26.3-7.8-46.5-12.6c-21.7-5.1-35.3-6.7-52.3-9.4c-14.5-2.2-38.9-7.3-87.5-17.5c-30.3-6.3-69.9-14.8-116.7-25.3l-50-19
		c3.1-18.6,6.1-37.1,9.2-55.7c8-30.1,22-77,45-132.5c28.2-68,35.9-66.8,65-137.5c20.1-48.8,30.8-84.2,62.5-152.5
		c19.2-41.2,26.9-53.5,40-65c39.4-34.8,93.2-33.6,122.5-32.5c127.4,4.6,220.1,21.3,292.5,30c66.5,8,131.8,8.6,262.5,10
		c80.3,0.8,141.6-0.6,225-2.5c80.5-1.9,116.2-3.7,137.5-5c41.4-2.4,41.7-3.3,132.5-10c108.4-8,105.7-6.5,130-10
		c82.5-11.7,87.4-24.4,110-15c27.5,11.5,47,57.8,85,150c11.2,27.2,20,50.7,30,77.5c8.4,22.4,16,43.6,37.5,105
		c39.7,113.5,50.5,147.3,43.3,196.7c-1.5,10.1-1.5,15.4-4,20.4c-27.3,55.1-108.3,68.5-306,96.6c-214.5,30.4-204.6,31.3-260.8,36.3
		c-82.3,7.4-143.9,9.2-257.5,12.5c-100.3,2.9-150.4,4.3-215,2.5C-3437.7-430.9-3551.8-445.2-3551.9-444.5z"/>
	<path class="st0" d="M-3748.9-1637c-19-323,4-1345,30-1345c19,0,19,1071-1,1410l-12,220L-3748.9-1637z"/>
	<path class="st0" d="M-2608.9-1741c-17-474-15-1109,4-1211c22-115,43,420,42,1018C-2564.9-1346-2589.9-1238-2608.9-1741z"/>
</g>
<path class="st0" d="M-73.4,407.8"/>
<rect x="-186.8" y="368.5" class="st0" width="57.7" height="80.1"/>
<path class="st0" d="M-195.4,460.4c-0.9,2.3-1.4,4.2-1.8,5.8c-0.5,2.5-0.7,4.5-0.8,6.3c-0.1,1.4-0.2,3.2,0,5.5
	c0.2,2.5,0.3,3.7,0.8,4.8c1.2,2.7,4,3.8,7.3,5c2,0.8,3.3,1,10.3,2.3c5.4,0.9,8.1,1.4,8.8,1.5c4.5,0.5,7.9,0.5,12.3,0.5
	c3.3,0,6.8,0,11.5-0.5s8.1-1.1,11.3-1.8c2.5-0.5,4.8-1.1,9.3-2.3c5.4-1.4,6.5-1.8,7.3-3c0.8-1.1,0.8-3.2,0.8-7.3
	c0-1.6-0.1-3-0.3-5.8c-0.6-8.5-0.9-9.2-1.5-9.5c-1.3-0.7-2.4,0.9-7.3,2.8c-2.5,0.9-4.5,1.4-7.5,2c-3.3,0.7-5.9,1-7.8,1.3
	c-1.1,0.1-4.6,0.5-10.5,0.8c-6,0.2-9,0.3-13.3,0c-6.4-0.5-11.1-1.7-12.5-2c-3.5-0.9-6.3-1.9-8.5-2.8"/>
<path class="st0" d="M-199.6,496.9c0,1.5,0.1,3.7,0.3,6.3c0.3,4.3,0.6,7.6,1,10.8c0.7,6.5,0.9,5.2,1,7.8c0.1,2.5,0,3.6,0.8,5.3
	c1,2.2,2.7,3.5,3.8,4.3c0.6,0.5,1.8,1.2,5.8,2.5c1.9,0.6,4.2,1.3,7.8,2c3.8,0.7,6.6,0.9,9.6,1.1c4.8,0.3,8.4,0.3,11.1,0.3
	c4.3-0.1,7.6-0.3,8.8-0.4c3.5-0.3,6.3-0.5,10-1.1c2.6-0.5,4.5-0.9,8.3-1.9c0.9-0.2,3-0.8,5.8-1.6c4.5-1.4,5.5-2.1,6.4-3
	c1.4-1.4,2-3,2.1-3.3c0.4-0.9,0.5-1.9,0.9-3.6c0.1-0.6,0.2-1.1,0.3-1.6c0.1-0.5,0.1-1.1,0.1-2.1c0-1.4,0-2.6,0-3.1
	c0-1.6-0.1-2-0.1-3.3c0-1.2,0-2.2,0-4.1c0-3.3,0.1-5,0.1-6c0.2-3.3,0.5-3.9,0-4.4c-0.7-0.7-2,0.1-6.9,1.8c-2.3,0.8-4,1.4-6.3,2
	c-0.9,0.2-2.4,0.6-5.4,1.3c-2.8,0.6-4.3,1-5.3,1.1c-2,0.3-3.1,0.4-5.8,0.6c-5.7,0.5-5.4,0.7-8.3,0.9c-3,0.2-5.3,0.1-9.9-0.2
	c-4.1-0.2-6.4-0.3-9.6-0.8c-2.1-0.3-4.2-0.8-8.3-1.8c-3.5-0.8-6.3-1.5-8.3-2"/>
<path class="st0" d="M-182.8,258.9c0.6,10.1,0.9,15.7,1,15.7s-0.1-6.3-0.2-6.3c0,0-0.1,5.4,0.3,12c0.1,2,0.2,3.5,0.5,6.7
	c0.1,1,0.4,3.5,0.8,8.7c0.2,2.9,0.3,4.3,1,6.3c0.5,1.4,1.3,3.5,3.2,4.8c2.1,1.5,4.4,1.4,6,1.3c4.6-0.1,9.2,0.3,13.8,0.3
	c6.3,0,10.4,0.5,15.8-0.7c1.5-0.3,3.9-0.9,5.3-3c0.9-1.4,1-2.8,1-3.7c0.2-3.8,0.7-7.5,0.8-11.3c0-1.6,0.4-5,1-11.8
	c0.3-3.6,0.4-4.4,0.8-8.7c0.4-4.1,0.7-7.5,0.8-9.7"/>
</svg>
